<svg width="1440" height="829" viewBox="0 0 1440 829" fill="none" xmlns="http://www.w3.org/2000/svg">
<g opacity="0.15" clip-path="url(#clip0_291_2107)">
<rect width="1440" height="829" fill="white"/>
<path d="M1440 0H0V829H1440V0Z" fill="white"/>
<path d="M214.18 604.263C221.549 568.975 270.021 550.005 285.692 590.987C294.463 578.303 327.237 585.347 324.624 604.263" fill="#E4E4E4"/>
<path d="M28.2662 461.606C31.6243 455.433 37.4285 450.102 44.7936 447.644C52.1606 445.185 61.0829 445.918 67.2134 450.217C67.9008 446.312 71.4547 443.318 74.8109 440.634C78.8371 437.414 82.9133 434.162 87.6902 431.83C97.8125 426.887 110.807 426.638 121.173 431.188C131.539 435.737 138.966 444.951 140.306 454.925C146.097 449.438 155.011 446.536 163.555 447.357C173.34 448.298 181.417 455.832 185.468 463.265" fill="#E4E4E4"/>
<path d="M25.2979 50.1378C28.656 43.9651 34.4602 38.6346 41.8272 36.1758C49.1942 33.717 58.1165 34.4498 64.247 38.749C64.9344 34.8444 68.4883 31.8501 71.8445 29.1658C75.8707 25.9459 79.9469 22.6946 84.7238 20.3618C94.8461 15.4193 107.841 15.1706 118.207 19.7202C128.573 24.2697 135.999 33.4832 137.341 43.4577C143.132 37.9698 152.047 35.0683 160.591 35.889C170.373 36.8291 178.452 44.3647 182.504 51.7975" fill="#E4E4E4"/>
<path d="M201.229 153.677C186.275 138.541 157.294 137.677 141.166 151.886C128.043 133.842 96.1344 136.289 82.4794 152.727C70.3181 137.982 43.8778 135.649 28.5158 147.963C34.2816 96.7394 96.864 82.1689 146.678 95.345C176.755 103.464 194.074 127.174 201.229 153.677Z" fill="#A458F5"/>
<path d="M30.5587 146.786L87.36 220.786L199.668 152.38" stroke="#A458F5" stroke-miterlimit="10" stroke-linecap="round" stroke-linejoin="round"/>
<path d="M83.2224 149.6L87.36 220.786L141.132 146.786" stroke="#A458F5" stroke-miterlimit="10" stroke-linecap="round" stroke-linejoin="round"/>
<path d="M155.228 221.797L32.2097 204.722L23.457 251.743L146.475 268.819L155.228 221.797Z" fill="#49225B"/>
<path d="M103.492 245.938C100.424 237.928 105.853 229.063 109.778 236.718C112.239 241.519 108.837 251.159 115.774 255.513C111.492 254.719 104.579 248.773 103.492 245.938Z" fill="white"/>
<path d="M119.831 237.144C122.442 234.718 128.35 235.516 126.868 239.525C123.736 245.211 113.777 245.876 111.913 252.479C109.233 247.737 115.407 240.378 119.831 237.144Z" fill="white"/>
<path d="M115.275 229.633C116.669 227.508 121.039 223.873 121.532 227.65C120.298 232.324 114.088 234.862 112.982 239.823C112.646 236.255 113.213 232.78 115.275 229.633Z" fill="white"/>
<path d="M83.0256 211.776L32.2079 204.722L23.4553 251.743L74.2729 258.797L83.0256 211.776Z" fill="#3F0082"/>
<path d="M64.9862 653.834C59.8925 644.058 51.3178 635.3 39.9245 631.044C37.5014 630.139 34.823 629.434 32.2445 629.925C28.3411 630.668 25.6896 634.085 25.2691 637.519C24.8486 640.951 26.2387 644.36 27.9974 647.46C33.8995 657.866 43.9066 666.005 52.5926 674.837C57.1757 679.498 61.4227 684.493 64.5062 690.019C65.2762 691.401 69.287 703.516 69.5059 703.511C71.6717 703.459 72.9254 695.345 73.0848 694.05C73.8451 687.859 72.7526 681.264 71.7293 675.137C70.5101 667.832 68.5018 660.582 64.9862 653.834Z" fill="#A458F5"/>
<path d="M65.5757 614.581C66.409 610.57 67.6685 606.518 70.4064 603.2C73.1462 599.882 77.6198 597.402 82.3315 597.621C87.1507 597.845 91.3939 600.895 93.4349 604.671C95.4778 608.446 95.5872 612.818 94.7693 616.925C92.759 627.012 85.6301 635.674 79.4822 644.425C73.6339 652.749 66.9446 663.762 69.8208 673.847C70.3507 667.87 68.0179 661.507 66.8909 655.657C65.2262 647.019 63.9974 638.283 64.0589 629.514C64.0954 624.512 64.5542 619.506 65.5757 614.581Z" fill="#A458F5"/>
<path d="M41.7197 587.457C36.3917 582.09 29.7389 577.13 21.6538 576.024C18.3379 575.571 14.4269 576.022 12.5299 578.413C10.9978 580.344 11.2646 582.944 12.0288 585.191C14.2349 591.672 19.8413 596.828 25.4995 601.494C40.5293 613.841 56.6246 625.023 65.8752 641.447C63.3811 622.022 56.6592 602.507 41.7197 587.457Z" fill="#A458F5"/>
<path d="M29.0093 557.489C27.8611 552.986 27.1373 548.196 28.8653 543.834C30.5933 539.471 35.4317 535.726 40.7501 536.131C45.2045 536.47 48.8602 539.606 50.5325 543.189C52.2029 546.772 52.2432 550.749 52.0896 554.607C51.7248 563.736 50.4096 572.825 50.1562 581.958C49.9066 591.002 50.7302 600.245 54.4896 608.766C51.0317 600.783 45.3831 593.622 41.0746 585.919C35.9847 576.818 31.5303 567.386 29.0093 557.489Z" fill="#A458F5"/>
<mask id="mask0_291_2107" style="mask-type:luminance" maskUnits="userSpaceOnUse" x="0" y="649" width="484" height="180">
<path d="M483.514 649.682H0V829H483.514V649.682Z" fill="white"/>
</mask>
<g mask="url(#mask0_291_2107)">
<path d="M45.3773 695.576C46.608 698.348 50.7955 698.943 54.2323 698.901C57.6691 698.86 61.7088 698.842 63.7632 701.223C64.896 702.534 65.1456 704.341 66.4781 705.505C68.8301 707.561 72.7757 706.457 76.1242 706.479C88.6733 706.555 94.2125 723.304 106.756 723.619C110.014 723.7 113.267 722.578 116.475 723.069C121.164 723.785 124.236 727.641 126.38 731.312C128.525 734.985 130.548 739.065 134.673 741.122C135.825 741.698 137.353 742.061 138.428 741.384C140.761 739.917 138.576 735.394 141.398 734.878C141.969 734.774 142.556 734.925 143.138 734.938C145.953 735.003 147.531 731.96 147.137 729.553C146.744 727.146 145.198 724.942 144.987 722.516C144.716 719.403 146.746 716.397 149.52 714.395C152.294 712.394 155.741 711.237 159.162 710.226C159.946 709.994 160.794 709.725 161.224 709.113C162.257 707.642 160.13 706.117 158.928 704.748C156.33 701.786 158.202 697.308 161.447 694.868C164.692 692.427 168.95 691.286 172.669 689.419C173.748 688.879 174.849 688.207 175.273 687.194C175.53 686.584 175.511 685.908 175.763 685.296C176.492 683.52 179.053 682.975 181.225 682.787C185.023 682.459 188.851 682.408 192.659 682.637C196.904 682.892 201.195 683.492 205.384 682.847C212.173 681.803 217.676 677.687 223.611 674.655C225.859 673.506 228.263 672.46 229.958 670.744C230.037 670.664 230.085 670.56 230.16 670.477C214.282 668.384 198.021 667.298 181.465 667.298C132.718 667.298 86.5421 676.746 45.1834 693.569C45.0835 694.246 45.0893 694.927 45.3773 695.576Z" fill="#CACACA"/>
<path d="M302.657 699.275C299.485 703.675 309.304 707.943 308.538 713.083C308.206 715.319 305.919 716.912 303.727 718.136C296.517 722.158 288.336 724.876 279.863 726.061C274.668 726.789 269.14 727.015 264.707 729.464C260.273 731.912 257.735 737.677 261.243 741.065C262.341 742.126 263.904 742.837 264.724 744.072C266.993 747.486 262.284 751.081 260.582 754.731C258.48 759.246 261.208 764.217 262.764 768.896C264.797 775.009 264.78 781.621 262.716 787.727C258.566 800.003 246.532 809.931 244.992 822.651C244.858 823.764 244.831 824.964 245.52 825.911C246.799 827.662 249.708 827.65 252.09 827.418C258.979 826.747 267.312 826.465 271.313 831.354C273.155 833.603 273.571 836.463 274.575 839.077C275.58 841.692 277.653 844.393 280.813 844.754C288.052 845.582 290.724 834.342 298.022 834.511C300.772 834.574 303.037 836.352 305.662 837.063C311.735 838.712 317.781 834.407 321.416 829.892C325.05 825.377 328.134 819.992 333.965 817.782C337.198 816.555 341.361 816.213 343.083 813.551C344.118 811.951 343.885 809.998 343.968 808.167C344.258 801.732 349.192 795.626 356.085 793.169C362.978 790.712 371.464 792.035 376.925 796.419C380.436 799.237 382.637 803.072 384.219 806.98C385.741 810.74 386.765 814.65 387.262 818.611C387.725 822.303 388.151 826.672 391.86 828.556C394.881 830.088 398.694 829.194 402.184 829.444C412.792 830.207 418.372 840.951 428.003 844.867C435.861 848.062 445.119 846.237 453.429 844.053C461.359 841.97 469.181 839.585 476.89 836.953C447.439 776.332 393.669 726.746 326.152 697.156C320.732 697.143 315.31 697.129 309.89 697.118C307.221 697.106 304.07 697.315 302.657 699.275Z" fill="#CACACA"/>
<path d="M-88.8422 818.302C-86.6765 821.116 -82.7616 822.67 -80.6803 825.533C-76.0666 831.883 -81.7018 842.513 -74.3789 846.54C-70.775 848.521 -65.5392 847.593 -62.4 850.096C-60.2957 851.772 -59.8483 854.453 -59.5258 856.909C-58.0474 868.182 -56.567 879.454 -55.0886 890.725C-54.8275 892.712 -54.4128 894.938 -52.5331 896.106C-47.783 899.057 -43.1731 892.163 -42.6739 887.126C-41.831 878.63 -40.9882 870.135 -40.1434 861.639C-36.0595 860.089 -31.3402 862.813 -29.1053 866.147C-26.8704 869.482 -26.1043 873.429 -23.8867 876.773C-16.5811 887.788 2.25408 887.758 13.1942 896.233C20.471 901.871 23.5469 910.777 31.033 916.207C40.9709 923.415 55.5187 922.521 68.3674 920.939C72.2938 920.455 76.5216 919.984 80.039 921.568C88.4717 925.361 90.0345 939.262 99.3926 937.808C104.189 945.653 92.5824 953.56 82.5734 955.565C72.5645 957.569 59.9328 959.513 57.2333 968.074C56.4077 970.691 56.7706 973.521 55.7837 976.096C54.6144 979.15 51.7248 981.436 48.9485 983.58C42.409 988.627 35.8714 993.674 29.3318 998.721C21.7286 1004.59 13.8931 1010.73 9.91488 1018.84C5.93664 1026.95 7.008 1037.62 15.1296 1042.95C17.255 1044.34 19.7933 1045.34 21.433 1047.16C24.8525 1050.95 23.0554 1056.51 24.695 1061.1C26.1197 1065.08 29.9923 1067.99 33.6883 1070.67C46.992 1080.33 60.2976 1089.98 73.6013 1099.64C77.1936 1102.24 80.8646 1104.93 83.1514 1108.47C86.9088 1114.29 86.375 1121.52 89.4643 1127.63C95.6448 1139.85 113.313 1143.5 125.568 1151.61C142.639 1162.91 148.871 1182.9 164.348 1195.8C165.715 1196.94 167.276 1198.07 169.165 1198.26C174.384 1198.8 176.479 1192.8 177.853 1188.42C183.036 1171.92 203.545 1161.92 209.981 1145.75C214.961 1133.24 210.639 1119.14 214.975 1106.45C217.269 1099.74 221.877 1093.77 224.388 1087.11C228.881 1075.2 226.314 1062.31 225.391 1049.8C224.118 1032.59 226.045 1015.13 222.192 998.202C218.337 981.279 207.045 964.178 188.221 958.417C181.271 956.289 173.645 955.809 167.098 952.876C162.369 950.758 158.3 947.401 153.133 946.282C147.65 945.095 141.915 946.633 136.26 946.673C128.316 946.731 120.847 943.065 115.926 937.808C112.024 933.639 106.704 926.784 109.38 921.304C110.557 918.893 112.825 917.026 114.555 914.878C116.285 912.729 117.491 909.897 116.212 907.524C115.388 905.996 113.656 904.915 112.957 903.341C111.696 900.504 114.194 897.548 116.452 895.217C118.712 892.886 121.006 889.719 119.374 887.026C117.984 884.732 114.53 884.186 111.548 883.904C105.402 883.326 99.2582 882.746 93.1123 882.167C90.5971 881.93 87.289 882.115 86.5709 884.211C86.2349 885.191 86.6592 886.227 86.9837 887.209C88.3469 891.322 87.9706 895.849 85.943 899.753C77.5757 898.783 73.4937 889.709 65.4451 887.512C63.191 886.897 60.6413 886.827 58.7769 885.572C56.3789 883.957 55.9872 881.011 55.7856 878.392C55.3747 873.049 54.6297 867.638 54.5453 862.286C54.48 858.094 52.5946 852.88 54.1805 848.884C55.6435 845.198 59.879 842.997 63.6518 840.859C69.8208 837.364 77.2013 832.939 81.504 827.662C85.008 823.366 84.8294 817.949 91.8586 816.497C93.3658 821.416 92.8147 840.82 96.9984 843.778C100.199 846.041 105.37 844.477 107.743 841.551C110.116 838.624 110.484 834.867 110.876 831.311C112.539 816.218 116.008 801.275 121.212 786.795C125.637 774.481 131.374 761.519 127.482 749.071C123.469 751.47 117.329 750.608 114.403 747.234C113.453 746.138 112.796 744.817 111.55 743.969C109.594 742.641 106.84 742.868 104.352 742.88C89.9078 742.94 82.0013 734.567 77.7254 724.257C72.4896 711.632 64.8288 718.456 51.7459 715.213C48.3475 714.369 45.504 712.398 42.3994 710.935C34.6138 707.264 25.6301 706.925 16.6234 706.734C-27.8323 729.831 -65.2704 761.967 -92.2464 800.222C-91.9814 803.588 -91.68 806.95 -91.3152 810.309C-91.0157 813.083 -90.6298 815.98 -88.8422 818.302Z" fill="#CACACA"/>
<path d="M453.433 844.048C445.123 846.231 435.865 848.057 428.006 844.862C418.376 840.947 412.796 830.202 402.188 829.439C398.698 829.189 394.883 830.082 391.864 828.55C388.157 826.667 387.729 822.3 387.266 818.606C386.769 814.646 385.747 810.735 384.223 806.975C382.639 803.067 380.44 799.232 376.929 796.413C371.466 792.03 362.982 790.706 356.089 793.164C349.196 795.621 344.262 801.727 343.972 808.162C343.889 809.992 344.12 811.945 343.087 813.545C341.364 816.208 337.204 816.55 333.969 817.777C328.14 819.988 325.054 825.372 321.42 829.887C317.785 834.401 311.741 838.706 305.666 837.057C303.041 836.345 300.776 834.569 298.026 834.506C290.726 834.337 288.056 845.576 280.817 844.749C277.657 844.387 275.581 841.687 274.579 839.072C273.575 836.459 273.158 833.599 271.317 831.349C267.316 826.461 258.981 826.743 252.094 827.413C249.711 827.645 246.803 827.657 245.524 825.906C244.833 824.959 244.86 823.759 244.996 822.646C246.536 809.928 258.572 799.998 262.719 787.722C264.783 781.616 264.799 775.005 262.767 768.89C261.212 764.213 258.484 759.243 260.586 754.726C262.287 751.075 266.995 747.481 264.728 744.067C263.908 742.832 262.345 742.12 261.247 741.059C257.739 737.672 260.277 731.907 264.71 729.458C269.144 727.009 274.671 726.784 279.867 726.056C288.34 724.871 296.521 722.153 303.731 718.131C305.923 716.907 308.21 715.312 308.542 713.077C309.308 707.936 299.487 703.67 302.661 699.269C304.074 697.31 307.223 697.101 309.898 697.107C315.318 697.121 320.738 697.132 326.16 697.145C296.508 684.15 264.246 674.956 230.17 670.468C230.095 670.553 230.047 670.656 229.968 670.735C228.273 672.451 225.869 673.497 223.62 674.646C217.686 677.681 212.183 681.794 205.394 682.839C201.204 683.484 196.913 682.883 192.668 682.628C188.861 682.399 185.032 682.449 181.235 682.779C179.063 682.966 176.502 683.512 175.772 685.287C175.521 685.899 175.538 686.576 175.283 687.186C174.858 688.199 173.758 688.87 172.679 689.411C168.958 691.278 164.701 692.417 161.457 694.859C158.212 697.3 156.34 701.778 158.938 704.739C160.14 706.11 162.267 707.636 161.234 709.105C160.804 709.716 159.955 709.985 159.172 710.217C155.75 711.229 152.304 712.384 149.53 714.387C146.755 716.39 144.726 719.396 144.996 722.508C145.208 724.932 146.753 727.137 147.147 729.544C147.54 731.952 145.962 734.996 143.148 734.93C142.566 734.916 141.978 734.765 141.408 734.87C138.584 735.386 140.771 739.909 138.438 741.376C137.363 742.052 135.834 741.689 134.682 741.114C130.56 739.056 128.534 734.974 126.39 731.304C124.245 727.631 121.173 723.776 116.484 723.06C113.276 722.569 110.022 723.693 106.765 723.61C94.2202 723.295 88.6829 706.546 76.1338 706.47C72.7872 706.45 68.8416 707.553 66.4877 705.497C65.1552 704.333 64.9056 702.526 63.7728 701.214C61.7165 698.835 57.6787 698.852 54.2419 698.893C50.8051 698.936 46.6176 698.339 45.3869 695.567C45.0989 694.919 45.0931 694.236 45.1968 693.559C35.3952 697.547 25.8566 701.929 16.631 706.722C25.6378 706.913 34.6214 707.254 42.407 710.923C45.5117 712.386 48.3552 714.357 51.7536 715.201C64.8365 718.446 72.4954 711.62 77.7331 724.245C82.009 734.555 89.9155 742.928 104.36 742.868C106.848 742.858 109.601 742.631 111.558 743.957C112.804 744.803 113.462 746.124 114.411 747.222C117.337 750.596 123.477 751.46 127.49 749.059C131.382 761.507 125.643 774.47 121.219 786.784C116.016 801.263 112.547 816.206 110.884 831.299C110.492 834.856 110.124 838.613 107.75 841.539C105.377 844.465 100.207 846.029 97.0061 843.766C92.8224 840.808 93.3734 821.404 91.8662 816.485C84.8371 817.937 85.0157 823.356 81.5117 827.65C77.209 832.926 69.8285 837.353 63.6595 840.848C59.8867 842.985 55.6531 845.187 54.1882 848.872C52.6003 852.87 54.4858 858.083 54.553 862.274C54.6374 867.626 55.3824 873.038 55.7933 878.38C55.9949 880.999 56.3866 883.947 58.7846 885.561C60.649 886.816 63.1987 886.885 65.4528 887.5C73.5014 889.697 77.5834 898.772 85.9507 899.741C87.9802 895.837 88.3546 891.311 86.9914 887.197C86.665 886.216 86.2426 885.179 86.5786 884.199C87.2966 882.105 90.6048 881.918 93.12 882.155C99.2659 882.734 105.41 883.314 111.556 883.893C114.538 884.173 117.992 884.718 119.382 887.015C121.014 889.709 118.719 892.876 116.46 895.205C114.2 897.536 111.704 900.491 112.965 903.329C113.666 904.904 115.396 905.984 116.22 907.513C117.496 909.885 116.291 912.717 114.563 914.866C112.833 917.015 110.565 918.881 109.388 921.292C106.712 926.772 112.032 933.628 115.933 937.796C120.854 943.053 128.323 946.718 136.268 946.661C141.921 946.621 147.658 945.081 153.141 946.27C158.308 947.389 162.376 950.745 167.105 952.864C173.652 955.795 181.279 956.276 188.229 958.405C207.055 964.166 218.346 981.267 222.2 998.19C226.055 1015.11 224.127 1032.58 225.398 1049.79C226.322 1062.29 228.889 1075.19 224.396 1087.1C221.885 1093.76 217.277 1099.73 214.982 1106.44C210.647 1119.13 214.969 1133.23 209.988 1145.74C203.553 1161.91 183.043 1171.9 177.861 1188.41C176.486 1192.79 174.392 1198.79 169.173 1198.25C167.286 1198.06 165.725 1196.92 164.356 1195.79C148.879 1182.89 142.646 1162.9 125.576 1151.6C113.32 1143.49 95.6525 1139.83 89.472 1127.61C86.3846 1121.51 86.9184 1114.28 83.159 1108.46C80.8743 1104.92 77.2013 1102.23 73.609 1099.63C60.3053 1089.97 46.9997 1080.32 33.696 1070.66C30 1067.98 26.1254 1065.07 24.7027 1061.09C23.063 1056.5 24.8582 1050.94 21.4406 1047.15C19.8009 1045.33 17.2627 1044.33 15.1373 1042.93C7.01569 1037.61 5.94432 1026.94 9.92256 1018.83C13.8989 1010.72 21.7363 1004.58 29.3395 998.709C35.879 993.662 42.4166 988.615 48.9562 983.568C51.7325 981.425 54.6221 979.138 55.7914 976.084C56.7763 973.509 56.4153 970.679 57.241 968.063C59.9405 959.502 72.5722 957.558 82.5811 955.553C92.5901 953.549 104.196 945.643 99.4003 937.796C90.0423 939.25 88.4794 925.349 80.0467 921.556C76.5293 919.974 72.3014 920.445 68.375 920.927C55.5283 922.509 40.9786 923.403 31.0406 916.195C23.5546 910.767 20.4768 901.86 13.2019 896.222C2.26175 887.746 -16.5734 887.776 -23.879 876.762C-26.0966 873.417 -26.8627 869.47 -29.0976 866.135C-31.3325 862.801 -36.0518 860.076 -40.1357 861.627C-40.9786 870.123 -41.8214 878.619 -42.6662 887.114C-43.1654 892.15 -47.7754 899.045 -52.5255 896.094C-54.4051 894.927 -54.8198 892.7 -55.081 890.714C-56.5594 879.441 -58.0397 868.168 -59.5181 856.897C-59.8406 854.44 -60.288 851.761 -62.3923 850.084C-65.5315 847.581 -70.7674 848.511 -74.3712 846.528C-81.6941 842.501 -76.0589 831.871 -80.6726 825.521C-82.752 822.659 -86.6688 821.106 -88.8346 818.291C-90.6221 815.968 -91.008 813.071 -91.3094 810.294C-91.6742 806.937 -91.9757 803.573 -92.2406 800.207C-121.761 842.07 -138.772 891.234 -138.772 943.831C-138.772 1096.56 4.60797 1220.38 181.476 1220.38C261.794 1220.38 335.144 1194.79 391.357 1152.61C387.053 1152.39 382.931 1151.28 379.578 1148.94C370.109 1142.33 371.18 1129.95 370.992 1119.43C370.725 1104.56 366.111 1089.76 357.696 1076.78C350.89 1066.28 341.508 1056.66 338.502 1044.92C332.97 1023.3 350.243 999.198 338.657 979.445C336.288 975.406 332.82 971.865 330.879 967.658C326.972 959.187 329.841 949.687 331.334 940.659C334.81 919.656 319.822 910.752 302.636 898.952C296.246 894.565 289.148 888.578 290.938 881.701C291.815 878.332 294.801 875.44 294.879 871.988C294.977 867.674 290.106 863.716 291.368 859.394C292.838 854.355 298.337 854.014 302.557 856.488C308.066 859.717 307.246 862.679 314.605 861.219C318.62 860.424 322.648 857.444 326.899 859.361C329.608 860.581 330.68 863.368 331.983 865.754C333.287 868.14 335.758 870.634 338.771 870.193C339.564 870.077 340.295 869.76 341.055 869.536C345.708 868.166 350.901 870.455 354.029 873.729C357.156 877.004 358.779 881.119 360.86 884.964C365.501 893.542 372.693 901.08 381.556 906.652C388.107 910.771 396.856 913.856 404.168 910.838C406.992 909.673 409.463 907.64 412.579 907.382C419.29 906.826 423.128 914.378 429.606 915.988C433.726 917.013 438.073 915.423 441.828 913.636C449.624 909.927 456.753 905.216 464.686 901.734C472.62 898.251 481.768 896.026 490.433 897.788C493.021 898.314 495.445 899.171 497.733 900.262C493.684 878.174 486.626 856.953 476.899 836.933C469.185 839.579 461.365 841.965 453.433 844.048Z" fill="#E4E4E4"/>
</g>
<path d="M280.775 665.843C286.255 653.492 289.828 640.341 289.285 627.122C289.171 624.37 288.858 621.549 287.462 619.072C286.067 616.595 283.384 614.501 280.207 614.257C275.053 613.863 271.075 618.21 269.366 622.428C265.841 631.123 267.469 640.64 268.117 649.833C269.468 669.036 265.611 687.156 259.298 705.459C261.675 703.561 261.333 700.815 262.506 698.427C264.319 694.742 267.018 691.243 269.157 687.684C273.431 680.571 277.453 673.33 280.775 665.843Z" fill="#A458F5"/>
<path d="M268.03 686.864C279.974 668.92 301.015 655.682 324.455 651.36C328.435 650.625 332.807 650.183 336.385 651.854C341.176 654.091 342.898 659.721 341.103 664.16C339.306 668.598 334.717 671.851 329.702 673.685C324.687 675.519 319.209 676.135 313.82 676.807C303.39 678.107 292.897 679.707 283.207 683.281C273.517 686.856 264.589 692.596 259.474 700.551C262.452 694.201 266.628 688.272 271.791 683.069" fill="#A458F5"/>
<path d="M304.731 637.761C317.752 623.587 332.458 609.839 351.462 602.222C355.407 600.64 359.643 599.32 363.988 599.485C368.333 599.65 372.814 601.592 374.588 605.021C376.04 607.824 375.466 611.182 373.789 613.891C372.115 616.6 369.458 618.757 366.676 620.669C356.652 627.561 344.634 631.852 333.345 637.086C312.488 646.927 293.829 659.887 278.534 675.625C274.157 680.128 270.14 684.852 266.3 689.703C268.485 686.198 269.871 682.645 271.749 679.062C274.285 674.227 278.239 669.712 281.618 665.294C288.856 655.833 296.569 646.645 304.731 637.761Z" fill="#A458F5"/>
<path d="M146.527 681.469H8.68416V738.98H146.527V681.469Z" fill="#49225B"/>
<path d="M90.6643 717.221C85.6147 708.823 89.8003 698.172 95.7235 706.044C99.4387 710.983 97.6589 722.18 106.237 725.935C101.334 725.715 92.4518 720.194 90.6643 717.221Z" fill="white"/>
<path d="M106.944 704.971C109.334 701.884 116.041 701.859 115.227 706.527C112.931 713.306 102.04 715.573 101.338 723.171C97.392 718.33 102.712 709.232 106.944 704.971Z" fill="white"/>
<path d="M100.349 697.355C101.453 694.786 105.544 690.091 106.869 694.196C106.466 699.561 100.113 703.327 99.911 708.989C98.8051 705.093 98.7149 701.156 100.349 697.355Z" fill="white"/>
<path d="M53.3318 681.469H8.68416V738.98H53.3318V681.469Z" fill="#3F0082"/>
<path d="M226.074 735.488H363.916V677.977H226.074V735.488Z" fill="#4B2970"/>
<path d="M259.945 713.382C254.895 704.985 259.081 694.334 265.004 702.206C268.719 707.145 266.939 718.342 275.52 722.097C270.612 721.875 261.731 716.355 259.945 713.382Z" fill="white"/>
<path d="M276.225 701.131C278.615 698.044 285.322 698.019 284.508 702.687C282.211 709.466 271.321 711.733 270.618 719.331C266.673 714.492 271.993 705.394 276.225 701.131Z" fill="white"/>
<path d="M269.629 693.516C270.733 690.948 274.825 686.253 276.15 690.358C275.747 695.723 269.395 699.488 269.192 705.152C268.084 701.252 267.996 697.318 269.629 693.516Z" fill="white"/>
<path d="M319.268 735.488H363.916V677.977H319.268V735.488Z" fill="#3F0082"/>
<path d="M207.892 387.055C227.203 391.26 229.428 435.6 228.864 450.305C240.887 463.496 252.705 477.045 264.728 490.234C258.275 494.883 256.422 494.437 249.969 499.086C235.726 493.107 222.474 484.275 211.599 474.334C207.924 450.223 189.855 406.633 207.892 387.055Z" fill="#F3D9BC"/>
<path d="M209.174 443.482C216.86 443.505 230.452 442.074 237.285 440.327C233.528 418.171 227.879 391.936 202.742 380.463C205.123 401.44 206.794 422.503 209.174 443.482Z" fill="#A03EB1"/>
<path d="M206.454 721.457C197.378 752.276 216.367 740.466 239.716 743.34C247.536 745.094 279.556 748.149 266.3 734.857C258.543 729.434 244.261 730.361 240.985 720.729C240.841 720.914 240.697 721.096 240.553 721.28" fill="black"/>
<path d="M223.699 514.996C235.826 581.313 241.659 656.752 243.75 723.866C232.886 724.01 213.982 723.035 204.808 723.035C193.423 652.866 174.211 573.61 155.259 504.76" fill="#BC7BD3"/>
<path d="M206.968 516.573C216.449 550.745 223.027 583.54 225.617 613.853C228.939 652.718 236.502 687.735 239.858 723.036" stroke="#CB93E0" stroke-miterlimit="10" stroke-linecap="round" stroke-linejoin="round"/>
<path d="M188.659 519.642C194.458 542.491 199.891 566.194 204.837 590.721C214.18 637.043 220.773 681.276 225.272 723.036" stroke="#CB93E0" stroke-miterlimit="10" stroke-linecap="round" stroke-linejoin="round"/>
<path d="M170.607 517.558C179.132 544.791 187.135 573.988 194.147 605.036C203.508 646.486 209.827 686.878 213.98 723.037" stroke="#CB93E0" stroke-miterlimit="10" stroke-linecap="round" stroke-linejoin="round"/>
<path d="M104.886 721.457C95.8099 752.276 114.799 740.466 138.148 743.34C145.968 745.094 177.988 748.149 164.732 734.857C156.975 729.434 142.692 730.361 139.417 720.729C139.273 720.914 139.129 721.096 138.983 721.28" fill="black"/>
<path d="M104.022 723.699C103.284 661.217 105.884 581.479 111.807 519.204H176.548C160.005 584.032 153.8 657.092 142.773 723.699" fill="#BC7BD3"/>
<path d="M162.086 521.073L133.448 723.699" stroke="#CB93E0" stroke-miterlimit="10" stroke-linecap="round" stroke-linejoin="round"/>
<path d="M111.137 723.699L125.286 521.073" stroke="#CB93E0" stroke-miterlimit="10" stroke-linecap="round" stroke-linejoin="round"/>
<path d="M122.736 723.699L141.838 524.216" stroke="#CB93E0" stroke-miterlimit="10" stroke-linecap="round" stroke-linejoin="round"/>
<path d="M107.994 529.38C108.54 499.663 111.324 452.105 114.447 422.51C115.887 379.737 145.02 371.994 188.628 378.314C210.66 379.806 222.182 397.539 221.628 415.347C224.479 448.519 225.853 496.117 225.738 529.381" fill="#A458F5"/>
<path d="M228.315 534.64H191.363C187.25 481.06 187.786 429.114 183.673 375.534C219.832 378.962 223.622 402.649 225.218 424.037C227.965 460.871 227.883 497.733 228.315 534.64Z" fill="#606DCF"/>
<path d="M202.595 391.155C202.14 392.469 202.341 393.959 203.23 395.095C204.119 396.229 205.709 396.955 207.291 396.857C209.119 396.745 210.737 395.541 211.336 394.045C211.935 392.55 211.584 390.835 210.607 389.496C209.81 388.401 207.761 387.249 206.212 387.692C204.509 388.179 203.096 389.71 202.595 391.155Z" stroke="#A671CF" stroke-miterlimit="10" stroke-linecap="round" stroke-linejoin="round"/>
<path d="M193.651 409.693C193.158 410.798 193.096 412.058 193.578 413.165C194.298 414.818 196.26 416 198.303 416.035C200.348 416.07 202.351 414.966 203.197 413.359C204.044 411.753 203.702 409.735 202.374 408.392C201.139 407.143 199.002 406.505 197.119 406.683C195.454 406.84 194.202 408.46 193.651 409.693Z" stroke="#A671CF" stroke-miterlimit="10" stroke-linecap="round" stroke-linejoin="round"/>
<path d="M209.22 420.87C208.545 422.631 208.89 424.66 210.123 426.179C210.824 427.043 211.814 427.749 212.978 428.072C214.141 428.396 215.476 428.304 216.501 427.732C217.665 427.084 218.308 425.92 218.653 424.761C219.139 423.135 219.13 421.339 218.237 419.847C217.386 418.425 215.372 417.201 213.454 417.234C211.528 417.269 209.756 419.477 209.22 420.87Z" stroke="#A671CF" stroke-miterlimit="10" stroke-linecap="round" stroke-linejoin="round"/>
<path d="M195.051 437.066C190.742 441.469 197.286 448.323 202.829 444.469C210.132 438.661 202.748 430.188 195.051 437.066Z" stroke="#A671CF" stroke-miterlimit="10" stroke-linecap="round" stroke-linejoin="round"/>
<path d="M211.029 454.96C210.134 456.557 210.046 458.532 211.044 460.084C212.139 461.785 214.404 462.778 216.655 462.867C217.703 462.909 218.813 462.758 219.642 462.201C220.397 461.694 220.833 460.914 221.159 460.138C221.662 458.938 221.967 457.658 221.841 456.386C221.508 453.049 216.918 449.985 213.477 452.381C212.465 453.084 211.597 453.947 211.029 454.96Z" stroke="#A671CF" stroke-miterlimit="10" stroke-linecap="round" stroke-linejoin="round"/>
<path d="M197.211 474.334C196.7 481.387 209.165 482.062 210.361 475.286C211.824 466.833 198.455 466.724 197.211 474.334Z" stroke="#A671CF" stroke-miterlimit="10" stroke-linecap="round" stroke-linejoin="round"/>
<path d="M211.599 489.578C211.567 492.012 213.473 494.374 216.127 495.192C217.165 495.512 218.339 495.605 219.366 495.258C220.502 494.875 221.328 494.006 221.921 493.084C223.052 491.322 223.486 489.143 222.641 487.265C221.85 485.509 219.732 484.203 217.597 483.899C215.643 483.621 213.805 485.09 212.792 486.386C212.056 487.325 211.615 488.442 211.599 489.578Z" stroke="#A671CF" stroke-miterlimit="10" stroke-linecap="round" stroke-linejoin="round"/>
<path d="M197.954 511.588C197.904 512.967 198.288 514.403 199.308 515.466C200.327 516.528 202.057 517.134 203.587 516.734C204.995 516.368 205.98 515.267 206.628 514.128C207.229 513.071 207.627 511.904 207.56 510.73C207.435 508.537 205.811 507.262 203.434 506.834C201.61 506.506 200.412 506.912 199.258 508.192C198.38 509.167 198 510.366 197.954 511.588Z" stroke="#A671CF" stroke-miterlimit="10" stroke-linecap="round" stroke-linejoin="round"/>
<path d="M211.93 521.819C211.317 523.314 211.693 525.08 212.886 526.287C213.875 527.289 215.368 527.886 216.889 527.972C217.949 528.031 219.057 527.841 219.909 527.294C220.764 526.745 221.292 525.886 221.558 524.997C222.004 523.52 221.76 521.875 220.788 520.599C219.884 519.41 217.818 518.122 216.079 518.548C214.341 518.97 212.529 520.357 211.93 521.819Z" stroke="#A671CF" stroke-miterlimit="10" stroke-linecap="round" stroke-linejoin="round"/>
<path d="M108.029 534.274C130.468 534.397 141.469 534.519 163.908 534.64C156.077 485.545 161.428 426.905 154.199 376.883C116.504 379.916 111.42 396.259 109.603 425.255C106.218 461.474 105.633 498.02 108.029 534.274Z" fill="#606DCF"/>
<path d="M144.301 401.899C143.601 402.827 143.157 403.933 143.263 405.038C143.42 406.681 144.893 408.165 146.746 408.566C148.598 408.967 150.695 408.271 151.774 406.909C152.853 405.548 152.855 403.62 151.793 402.249C150.968 401.183 149.547 400.501 148.076 400.39C146.425 400.264 145.231 400.667 144.301 401.899Z" stroke="#A671CF" stroke-miterlimit="10" stroke-linecap="round" stroke-linejoin="round"/>
<path d="M140.435 420.579C139.812 422.41 140.438 424.516 142.007 425.862C143.24 426.92 145.092 427.497 146.772 427.109C147.913 426.847 148.873 426.182 149.677 425.436C150.641 424.542 151.448 423.468 151.659 422.261C151.907 420.84 151.261 419.343 150.058 418.349C148.8 417.313 146.421 416.56 144.68 416.937C142.694 417.368 141.001 418.915 140.435 420.579Z" stroke="#A671CF" stroke-miterlimit="10" stroke-linecap="round" stroke-linejoin="round"/>
<path d="M141.469 458.425C140.799 460.536 141.542 463.041 143.616 464.301C144.866 465.061 146.448 465.311 147.976 465.286C149.267 465.266 150.634 465.027 151.563 464.253C152.275 463.66 152.642 462.824 152.905 462C153.308 460.733 153.519 459.404 153.306 458.104C152.93 455.812 151.284 454.202 148.733 453.557C146.584 453.015 145.183 453.836 143.706 455.159C142.679 456.081 141.863 457.187 141.469 458.425Z" stroke="#A671CF" stroke-miterlimit="10" stroke-linecap="round" stroke-linejoin="round"/>
<path d="M123.324 467.899C122.63 469.063 122.527 470.495 123.133 471.696C123.629 472.676 124.552 473.455 125.58 474.05C126.845 474.781 128.373 475.275 129.88 475.086C131.604 474.869 133.058 473.77 133.891 472.448C135.103 470.527 135.085 467.993 133.565 466.243C132.257 464.737 129.809 464.003 127.707 464.538C126.912 464.74 126.442 465.183 125.831 465.634C124.875 466.34 123.919 466.899 123.324 467.899Z" stroke="#A671CF" stroke-miterlimit="10" stroke-linecap="round" stroke-linejoin="round"/>
<path d="M143.334 485.676C144.394 486.596 145.903 487.047 147.398 487.177C148.573 487.278 149.829 487.177 150.797 486.593C151.732 486.028 152.271 485.084 152.548 484.128C153.454 481.004 151.67 478.044 148.024 477.217C145.027 476.537 142.716 478.736 142.015 481.13C141.556 482.703 141.986 484.507 143.334 485.676Z" stroke="#A671CF" stroke-miterlimit="10" stroke-linecap="round" stroke-linejoin="round"/>
<path d="M111.178 486.493C110.93 488.082 111.832 489.761 113.395 490.625C115.225 491.635 117.804 491.434 119.459 490.221C121.114 489.007 121.77 486.905 121.14 485.111C120.743 483.977 119.839 482.95 118.595 482.451C116.863 481.756 115.505 482.383 114.058 483.172C112.595 483.97 111.421 484.925 111.178 486.493Z" stroke="#A671CF" stroke-miterlimit="10" stroke-linecap="round" stroke-linejoin="round"/>
<path d="M126.856 498.217C126.958 500.994 129.564 503.549 132.741 503.987C133.993 504.159 135.322 504.023 136.433 503.498C137.916 502.796 138.887 501.477 139.453 500.102C140.087 498.564 140.283 496.842 139.668 495.299C138.781 493.072 135.051 490.595 132.223 491.731C129.35 492.885 126.753 495.362 126.856 498.217Z" stroke="#A671CF" stroke-miterlimit="10" stroke-linecap="round" stroke-linejoin="round"/>
<path d="M145.265 505.219C144.232 506.539 143.58 508.184 144.013 509.732C144.486 511.417 146.241 512.72 148.207 513.073C150.411 513.468 152.838 512.702 154.23 511.175C155.62 509.646 155.908 507.429 154.942 505.673C154.001 503.961 152.158 503.092 150.119 502.631C148.08 502.168 146.314 503.879 145.265 505.219Z" stroke="#A671CF" stroke-miterlimit="10" stroke-linecap="round" stroke-linejoin="round"/>
<path d="M114.123 513.809C114.516 515.378 115.918 516.681 117.613 517.337C118.959 517.86 120.524 518.006 121.933 517.626C123.343 517.245 124.566 516.309 125.046 515.102C125.47 514.038 125.301 512.846 124.808 511.805C124.151 510.419 122.874 509.213 121.233 508.727C117.702 507.686 113.299 510.526 114.123 513.809Z" stroke="#A671CF" stroke-miterlimit="10" stroke-linecap="round" stroke-linejoin="round"/>
<path d="M133.066 519.944C132.361 520.477 131.868 521.192 131.503 521.937C131.002 522.96 130.723 524.079 130.835 525.186C130.946 526.294 131.464 527.386 132.386 528.162C133.732 529.295 135.871 529.621 137.629 529.044C139.386 528.467 140.711 527.055 141.114 525.47C141.502 523.946 141.057 522.28 139.935 521.056C138.315 519.287 135.222 518.309 133.066 519.944Z" stroke="#A671CF" stroke-miterlimit="10" stroke-linecap="round" stroke-linejoin="round"/>
<path d="M311.593 481.48H160.804V550.572H311.593V481.48Z" fill="#49225B"/>
<path d="M247.645 524.638C242.039 515.313 246.687 503.485 253.263 512.227C257.389 517.711 255.414 530.146 264.939 534.314C259.492 534.067 249.629 527.937 247.645 524.638Z" fill="white"/>
<path d="M265.722 511.034C268.378 507.605 275.823 507.577 274.919 512.76C272.369 520.287 260.277 522.804 259.496 531.241C255.114 525.87 261.024 515.767 265.722 511.034Z" fill="white"/>
<path d="M258.399 502.578C259.626 499.726 264.169 494.512 265.638 499.071C265.188 505.028 258.136 509.21 257.912 515.499C256.683 511.17 256.583 506.799 258.399 502.578Z" fill="white"/>
<path d="M212.139 481.48H158.5V550.572H212.139V481.48Z" fill="#3F0082"/>
<path d="M183.036 370.342C190.011 377.637 194.6 386.616 196.141 395.982C192.019 395.032 187.505 396.428 185.086 399.463C184.573 391.296 183.986 382.744 182.46 374.671" fill="#A03EB1"/>
<path d="M155.117 347.207C154.938 358.736 153.938 369.614 153.938 381.741C163.436 386.136 173.332 387.942 183.846 385.903C183.976 377.492 184.199 369.137 183.859 360.729L155.117 347.207Z" fill="#F3D9BC"/>
<path d="M160.719 354.238C161.032 359.541 163.644 364.718 167.925 368.529C172.207 372.339 177.911 374.749 184.04 375.18C183.905 370.875 183.932 366.698 183.798 362.392L160.719 354.238Z" fill="#C99CEB"/>
<path d="M154.067 370.344C141.504 374.325 142.015 388.016 144.626 397.402C148.328 395.137 156.691 396.088 156.762 400.778C157.645 390.507 156.858 380.36 154.067 370.344Z" fill="#A03EB1"/>
<path d="M152.314 344.378C154.493 353.272 160.812 361.686 170.461 365.72C182.949 370.862 199.269 368.36 201.124 354.18C202.637 342.601 202.568 330.9 201.767 319.273C202.161 314.355 196.767 310.112 191.889 308.463C163.551 301.199 145.16 320.929 152.314 344.378Z" fill="#F3D9BC"/>
<path d="M180.983 313.765C186.248 313.697 191.52 314.803 196.188 316.9C197.848 317.646 200.582 320.211 201.961 318.53C203.24 316.97 203.034 314.373 202.291 312.69C201.216 310.255 198.824 308.378 196.126 307.207C193.428 306.037 190.428 305.498 187.444 305.097C180.49 304.162 173.292 303.92 166.483 305.465C159.677 307.01 153.266 310.507 149.7 315.748C147.059 319.629 146.11 324.23 146.145 328.733C146.179 333.235 147.147 337.69 148.111 342.113C155.844 343.105 160.656 338.426 161.668 332.172C162.303 328.247 161.551 324.265 160.8 320.355C166.372 316.234 173.643 313.859 180.983 313.765Z" fill="#363636"/>
<path d="M177.721 326.412C178.646 326.371 179.783 326.532 180.111 327.281C180.386 327.911 179.871 328.632 179.18 328.946C178.489 329.259 177.677 329.271 176.895 329.291C175.509 329.327 174.125 329.413 172.75 329.566C171.542 329.7 170.183 330.141 168.991 330.115C169.054 329.183 171.295 328.175 172.124 327.787C173.846 326.983 175.768 326.502 177.721 326.412Z" fill="black"/>
<path d="M185.639 332.852C186.572 335.269 188.168 337.493 190.26 339.29C190.915 339.852 191.658 340.439 191.787 341.228C191.942 342.178 191.132 343.05 190.23 343.611C189.327 344.17 188.271 344.566 187.521 345.274" stroke="black" stroke-miterlimit="10" stroke-linecap="round" stroke-linejoin="round"/>
<path d="M177.151 337.859C177.521 338.294 178.12 338.645 178.737 338.561C179.196 338.498 179.574 338.209 179.837 337.879C180.649 336.863 180.574 335.163 179.349 334.396C178.092 333.608 176.961 334.499 176.64 335.594C176.413 336.37 176.6 337.214 177.151 337.859Z" fill="black"/>
<path d="M193.59 328.312C192.996 328.322 192.3 328.288 191.965 327.865C191.712 327.545 191.779 327.09 192.038 326.774C192.298 326.457 192.712 326.258 193.137 326.135C194.36 325.781 195.725 325.975 196.904 326.429C198.081 326.883 199.108 327.581 200.12 328.273C199.615 327.928 197.704 328.248 197.092 328.258C195.924 328.276 194.757 328.294 193.59 328.312Z" fill="black"/>
<path d="M195.185 337.786C195.539 338.199 196.107 338.534 196.694 338.454C197.13 338.395 197.491 338.119 197.741 337.804C198.513 336.838 198.442 335.22 197.276 334.49C196.08 333.741 195.003 334.588 194.698 335.631C194.483 336.369 194.659 337.171 195.185 337.786Z" fill="black"/>
<path d="M177.18 351.559C179.411 355.412 185.906 356.092 188.557 353.012" stroke="black" stroke-miterlimit="10" stroke-linecap="round" stroke-linejoin="round"/>
<path d="M173.555 344.38C174.023 344.978 174.461 345.638 174.486 346.36C174.49 346.449 174.484 346.544 174.434 346.622C174.355 346.744 174.184 346.799 174.023 346.817C173.46 346.883 172.921 346.638 172.376 346.5C172.297 346.481 172.207 346.464 172.138 346.502C172.08 346.534 172.057 346.595 172.04 346.651C171.946 346.953 171.942 347.276 172.03 347.58C172.164 348.051 172.485 348.616 172.088 348.961C171.852 349.167 171.462 349.163 171.137 349.085C170.392 348.906 169.782 348.415 169.411 347.83C169.142 347.407 168.985 346.908 169.121 346.442C169.196 346.179 169.359 345.942 169.461 345.685C169.807 344.804 169.371 343.828 168.735 343.078C168.165 342.405 167.307 341.732 167.338 340.83C167.364 340.026 168.117 339.436 168.979 339.927C169.868 340.432 170.655 341.339 171.37 342.016C172.155 342.762 172.898 343.544 173.555 344.38Z" fill="#C99CEB"/>
<path d="M201.8 345.967C201.226 345.827 200.65 345.688 200.076 345.547C199.958 345.519 199.822 345.492 199.72 345.552C199.642 345.598 199.609 345.683 199.586 345.764C199.5 346.088 199.519 346.432 199.645 346.747C199.843 347.245 200.3 347.752 200.062 348.236C199.862 348.641 199.29 348.772 198.828 348.956C198.246 349.188 197.718 349.642 197.71 350.194C197.702 350.753 198.209 351.206 198.682 351.589C199.44 352.204 200.352 352.865 201.383 352.739" fill="#C99CEB"/>
<path d="M175.845 298.486C149.411 294.99 141.037 307.71 139.745 323.192C139.45 325.528 139.321 328.13 137.397 329.793C154.199 334.422 172.721 326.779 183.385 315.323C190.748 320.559 199.557 326.094 209.581 325.066C205.261 320.261 206.92 313.112 203.514 307.896C198.484 299.173 186.096 297.006 175.845 298.486Z" fill="black"/>
<path d="M151.72 349.937C159.546 348.949 160.028 335.065 152.202 333.556C149.505 333.036 146.584 334.125 144.86 335.989C143.136 337.854 142.531 340.372 142.854 342.743C143.117 344.685 143.996 346.6 145.578 347.999C147.158 349.397 149.482 350.219 151.72 349.937Z" fill="#F3D9BC"/>
<path d="M149.76 341.84C143.53 337.443 149.345 335.43 152.876 340.722C151.106 340.807 150.845 343.082 152.559 343.466C152.5 348.352 148.003 345.021 149.699 343.251" fill="#C99CEB"/>
<path d="M167.27 514.637C169.104 518.614 173.176 521.456 177.208 523.945C181.177 526.394 185.407 528.735 190.186 529.577C191.098 529.738 192.132 529.821 192.877 529.34C193.622 528.859 193.634 527.614 192.733 527.41C193.96 528.327 196.099 528.073 196.996 526.906C197.892 525.739 197.33 523.938 195.875 523.318C197.374 523.709 199.284 523.723 200.187 522.618C200.784 521.889 200.719 520.874 200.292 520.062C199.864 519.249 199.129 518.591 198.407 517.953C199.386 518.424 200.742 518.732 201.525 518.041C202.02 517.603 202.074 516.897 201.836 516.32C201.598 515.743 201.12 515.267 200.646 514.814C197.42 511.74 193.795 508.98 189.861 506.6C191.224 505.823 193.006 506.544 194.531 507.053C196.184 507.605 197.958 507.889 199.73 507.885C200.337 507.884 200.963 507.846 201.506 507.612C202.049 507.378 202.495 506.909 202.487 506.385C202.477 505.756 201.863 505.274 201.289 504.886C197.944 502.626 194.235 500.705 190.164 499.66C186.094 498.615 181.632 498.493 177.64 499.746" fill="#F3D9BC"/>
<path d="M187.524 510.714C181.672 509.649 197.03 517.971 198.758 518.158C194.822 515.974 190.971 513.492 187.524 510.714Z" fill="#C99CEB"/>
<path d="M183.31 514.379C179.124 514.434 193.428 522.81 195.272 523.115C191.124 520.413 187.286 517.286 183.31 514.379Z" fill="#C99CEB"/>
<path d="M179.414 517.98C179.27 517.876 179.109 517.767 178.921 517.763C178.575 517.757 178.36 518.133 178.451 518.421C178.543 518.71 178.825 518.917 179.094 519.106C180.599 520.167 182.106 521.228 183.612 522.29C186.372 524.221 189.203 526.251 192.589 527.308C190.846 526.614 189.348 525.15 187.882 524.092C186.079 522.79 184.276 521.489 182.471 520.189C181.452 519.451 180.432 518.717 179.414 517.98Z" fill="#C99CEB"/>
<path d="M106.81 413.205C102.374 435.452 86.471 470.686 118.552 482.309C126.991 487.076 125.117 473.503 127.16 469.557C131.025 446.042 138.415 422.175 135.153 398.333C130.251 368.224 108.273 399.835 106.81 413.205Z" fill="#F3D9BC"/>
<path d="M120.808 453.828C117.222 450.84 112.257 446.551 108.075 451.409C78.1018 471.882 147.688 509.129 168.144 515.091C171.287 511.095 176.559 505.593 179.395 501.164C159.581 485.63 140.801 469.175 120.808 453.828Z" fill="#F3D9BC"/>
<path d="M141.395 503.141C141.732 501.546 142.07 499.952 142.408 498.357C142.512 497.865 142.61 497.328 142.337 496.885C142.03 496.387 141.354 496.164 140.876 495.779C140.281 495.3 140.018 494.579 139.976 493.877C139.932 493.176 140.083 492.478 140.195 491.783C140.473 490.042 140.502 488.273 140.285 486.527C140.172 485.609 139.978 484.672 139.421 483.884C138.864 483.097 137.873 482.48 136.806 482.517C136.412 482.53 136.015 482.636 135.708 482.848C135.189 483.206 134.988 483.802 134.865 484.365C134.652 485.332 134.579 486.32 134.644 487.303C134.686 487.915 134.778 488.552 134.519 489.124C134.262 489.696 133.501 490.155 132.847 489.92C132.503 489.795 132.273 489.518 131.992 489.308C131.71 489.097 131.28 488.953 130.977 489.14C130.833 489.228 130.752 489.373 130.683 489.513C130.314 490.258 130.107 491.06 130.072 491.869C130.045 492.499 130.109 493.184 129.7 493.707C129.254 494.275 128.285 494.632 128.339 495.315" fill="#C99CEB"/>
<path d="M120.739 463.716C120.407 463.937 120.046 464.24 120.123 464.595C120.182 464.875 120.515 465.063 120.843 465.093C121.171 465.123 121.496 465.026 121.803 464.925C124.477 464.041 128.095 462.168 129.347 459.825C128.373 459.885 127.021 460.742 126.071 461.079C124.17 461.753 122.373 462.639 120.739 463.716Z" fill="#C99CEB"/>
<path d="M108.601 467.059C109.238 468.788 108.91 470.876 107.357 472.099C107.989 468.719 105.911 465.19 104.068 462.324C106.105 462.833 108.002 465.437 108.601 467.059Z" fill="#C99CEB"/>
<path d="M126.851 383.996C119.802 386.4 115.068 392.454 111.579 397.967C109.304 401.563 107.407 405.331 105.717 409.158C104.124 412.764 102.177 416.816 101.852 420.694C104.548 418.637 107.242 416.581 109.937 414.523C110.506 416.49 111.245 418.42 112.141 420.292C112.236 420.487 112.351 420.699 112.575 420.784C112.79 420.865 113.04 420.802 113.259 420.728C116.423 419.663 118.691 416.523 122.081 416.654C122.92 421.273 124.355 425.811 126.348 430.158C126.497 430.485 126.733 430.865 127.142 430.878C127.38 430.886 127.592 430.757 127.784 430.636C129.197 429.735 130.608 428.837 132.021 427.937C133.388 429.707 134.755 431.478 136.122 433.249C136.645 431.128 137.138 429.001 137.599 426.869C139.486 418.154 140.995 409.531 139.26 400.686C138.566 397.154 137.357 393.626 135.17 390.554C134.16 389.136 132.948 387.825 131.524 386.7C130.894 386.206 127.73 383.695 126.851 383.996Z" fill="#A03EB1"/>
<path d="M1313.13 526.098C1320.5 490.811 1368.97 471.84 1384.64 512.823C1393.41 500.139 1426.19 507.182 1423.57 526.098" fill="#E4E4E4"/>
<path d="M1302.21 48.0205C1309.58 12.7333 1358.05 -6.23754 1373.72 34.7449C1382.49 22.0612 1415.26 29.1044 1412.65 48.0205" fill="#E4E4E4"/>
<path d="M1155.8 407.606C1159.16 401.433 1164.96 396.103 1172.33 393.644C1179.69 391.185 1188.61 391.918 1194.74 396.217C1195.43 392.312 1198.99 389.318 1202.34 386.634C1206.37 383.412 1210.44 380.163 1215.22 377.828C1225.34 372.886 1238.34 372.637 1248.7 377.186C1259.07 381.736 1266.5 390.95 1267.84 400.924C1273.63 395.436 1282.54 392.533 1291.09 393.355C1300.87 394.297 1308.95 401.831 1313 409.264" fill="#E4E4E4"/>
<mask id="mask1_291_2107" style="mask-type:luminance" maskUnits="userSpaceOnUse" x="956" y="649" width="484" height="180">
<path d="M1440 649.682H956.486V829H1440V649.682Z" fill="white"/>
</mask>
<g mask="url(#mask1_291_2107)">
<path d="M1148.14 695.576C1149.37 698.348 1153.56 698.943 1156.99 698.901C1160.43 698.86 1164.47 698.842 1166.52 701.223C1167.66 702.534 1167.91 704.341 1169.24 705.505C1171.59 707.561 1175.54 706.457 1178.88 706.479C1191.43 706.555 1196.97 723.304 1209.52 723.619C1212.77 723.7 1216.03 722.578 1219.23 723.069C1223.92 723.785 1227 727.641 1229.14 731.312C1231.28 734.985 1233.31 739.065 1237.43 741.122C1238.58 741.698 1240.11 742.061 1241.19 741.384C1243.52 739.917 1241.34 735.394 1244.16 734.878C1244.73 734.774 1245.32 734.925 1245.9 734.938C1248.71 735.003 1250.29 731.96 1249.9 729.553C1249.5 727.146 1247.96 724.942 1247.75 722.516C1247.48 719.403 1249.51 716.397 1252.28 714.395C1255.05 712.394 1258.5 711.237 1261.92 710.226C1262.71 709.994 1263.55 709.725 1263.98 709.113C1265.02 707.642 1262.89 706.117 1261.69 704.748C1259.09 701.786 1260.96 697.308 1264.21 694.868C1267.45 692.427 1271.71 691.286 1275.43 689.419C1276.51 688.879 1277.61 688.207 1278.03 687.194C1278.29 686.584 1278.27 685.908 1278.52 685.296C1279.25 683.52 1281.81 682.975 1283.98 682.787C1287.78 682.459 1291.61 682.408 1295.42 682.637C1299.66 682.892 1303.95 683.492 1308.14 682.847C1314.93 681.803 1320.44 677.687 1326.37 674.655C1328.62 673.506 1331.02 672.46 1332.72 670.744C1332.8 670.664 1332.84 670.56 1332.92 670.477C1317.04 668.384 1300.78 667.298 1284.22 667.298C1235.48 667.298 1189.3 676.746 1147.94 693.569C1147.84 694.246 1147.85 694.927 1148.14 695.576Z" fill="#CACACA"/>
<path d="M1405.42 699.275C1402.24 703.675 1412.06 707.943 1411.3 713.083C1410.96 715.319 1408.68 716.912 1406.49 718.136C1399.28 722.158 1391.1 724.876 1382.62 726.061C1377.43 726.789 1371.9 727.015 1367.47 729.464C1363.03 731.912 1360.49 737.677 1364 741.065C1365.1 742.126 1366.66 742.837 1367.48 744.072C1369.75 747.486 1365.04 751.081 1363.34 754.731C1361.24 759.246 1363.97 764.217 1365.52 768.896C1367.56 775.009 1367.54 781.621 1365.48 787.727C1361.33 800.003 1349.29 809.931 1347.75 822.651C1347.62 823.764 1347.59 824.964 1348.28 825.911C1349.56 827.662 1352.47 827.65 1354.85 827.418C1361.74 826.747 1370.08 826.465 1374.08 831.354C1375.92 833.603 1376.34 836.463 1377.34 839.077C1378.34 841.692 1380.42 844.393 1383.58 844.754C1390.82 845.582 1393.49 834.342 1400.79 834.511C1403.54 834.574 1405.8 836.352 1408.43 837.063C1414.5 838.712 1420.54 834.407 1424.18 829.892C1427.81 825.377 1430.9 819.992 1436.73 817.782C1439.96 816.555 1444.12 816.213 1445.85 813.551C1446.88 811.951 1446.65 809.998 1446.73 808.167C1447.02 801.732 1451.96 795.626 1458.85 793.169C1465.74 790.712 1474.23 792.035 1479.69 796.419C1483.2 799.237 1485.4 803.072 1486.98 806.98C1488.5 810.74 1489.53 814.65 1490.03 818.611C1490.49 822.303 1490.91 826.672 1494.62 828.556C1497.64 830.088 1501.46 829.194 1504.95 829.444C1515.56 830.207 1521.14 840.951 1530.77 844.867C1538.62 848.062 1547.88 846.237 1556.19 844.053C1564.12 841.97 1571.94 839.585 1579.65 836.953C1550.2 776.332 1496.43 726.746 1428.92 697.156C1423.5 697.143 1418.07 697.129 1412.65 697.118C1409.98 697.106 1406.83 697.315 1405.42 699.275Z" fill="#CACACA"/>
<path d="M1013.92 818.302C1016.08 821.116 1020 822.67 1022.08 825.533C1026.69 831.883 1021.06 842.513 1028.38 846.54C1031.98 848.521 1037.22 847.593 1040.36 850.096C1042.46 851.772 1042.91 854.453 1043.23 856.909C1044.71 868.182 1046.19 879.454 1047.67 890.725C1047.93 892.712 1048.34 894.938 1050.22 896.106C1054.97 899.057 1059.58 892.163 1060.08 887.126C1060.92 878.63 1061.77 870.135 1062.61 861.639C1066.7 860.089 1071.42 862.813 1073.65 866.147C1075.89 869.482 1076.65 873.429 1078.87 876.773C1086.17 887.788 1105.01 887.758 1115.95 896.233C1123.23 901.871 1126.3 910.777 1133.79 916.207C1143.73 923.415 1158.28 922.521 1171.12 920.939C1175.05 920.455 1179.28 919.984 1182.79 921.568C1191.23 925.361 1192.79 939.262 1202.15 937.808C1206.94 945.653 1195.34 953.56 1185.33 955.565C1175.32 957.569 1162.69 959.513 1159.99 968.074C1159.16 970.691 1159.53 973.521 1158.54 976.096C1157.37 979.15 1154.48 981.436 1151.7 983.58C1145.16 988.627 1138.63 993.674 1132.09 998.721C1124.48 1004.59 1116.65 1010.73 1112.67 1018.84C1108.69 1026.95 1109.76 1037.62 1117.89 1042.95C1120.01 1044.34 1122.55 1045.34 1124.19 1047.16C1127.61 1050.95 1125.81 1056.51 1127.45 1061.1C1128.88 1065.08 1132.75 1067.99 1136.45 1070.67C1149.75 1080.33 1163.06 1089.98 1176.36 1099.64C1179.95 1102.24 1183.62 1104.93 1185.91 1108.47C1189.67 1114.29 1189.13 1121.52 1192.22 1127.63C1198.4 1139.85 1216.07 1143.5 1228.33 1151.61C1245.4 1162.91 1251.63 1182.9 1267.11 1195.8C1268.47 1196.94 1270.04 1198.07 1271.92 1198.26C1277.14 1198.8 1279.24 1192.8 1280.61 1188.42C1285.79 1171.92 1306.3 1161.92 1312.74 1145.75C1317.72 1133.24 1313.4 1119.14 1317.73 1106.45C1320.03 1099.74 1324.63 1093.77 1327.14 1087.11C1331.64 1075.2 1329.07 1062.31 1328.15 1049.8C1326.87 1032.59 1328.8 1015.13 1324.95 998.202C1321.09 981.279 1309.8 964.178 1290.98 958.417C1284.03 956.289 1276.4 955.809 1269.85 952.876C1265.12 950.758 1261.06 947.401 1255.89 946.282C1250.41 945.095 1244.67 946.633 1239.02 946.673C1231.07 946.731 1223.6 943.065 1218.68 937.808C1214.78 933.639 1209.46 926.784 1212.14 921.304C1213.31 918.893 1215.58 917.026 1217.31 914.878C1219.04 912.729 1220.25 909.897 1218.97 907.524C1218.14 905.996 1216.41 904.915 1215.71 903.341C1214.45 900.504 1216.95 897.548 1219.21 895.217C1221.47 892.886 1223.76 889.719 1222.13 887.026C1220.74 884.732 1217.29 884.186 1214.3 883.904C1208.16 883.326 1202.01 882.746 1195.87 882.167C1193.35 881.93 1190.04 882.115 1189.32 884.211C1188.99 885.191 1189.41 886.227 1189.74 887.209C1191.1 891.322 1190.73 895.849 1188.7 899.753C1180.33 898.783 1176.25 889.709 1168.2 887.512C1165.94 886.897 1163.4 886.827 1161.53 885.572C1159.13 883.957 1158.74 881.011 1158.54 878.392C1158.13 873.049 1157.38 867.638 1157.3 862.286C1157.23 858.094 1155.35 852.88 1156.93 848.884C1158.4 845.198 1162.63 842.997 1166.41 840.859C1172.57 837.364 1179.96 832.939 1184.26 827.662C1187.76 823.366 1187.58 817.949 1194.61 816.497C1196.12 821.416 1195.57 840.82 1199.75 843.778C1202.95 846.041 1208.12 844.477 1210.5 841.551C1212.87 838.624 1213.24 834.867 1213.63 831.311C1215.29 816.218 1218.76 801.275 1223.97 786.795C1228.39 774.481 1234.13 761.519 1230.24 749.071C1226.23 751.47 1220.09 750.608 1217.16 747.234C1216.21 746.138 1215.55 744.817 1214.31 743.969C1212.35 742.641 1209.6 742.868 1207.11 742.88C1192.66 742.94 1184.76 734.567 1180.48 724.257C1175.25 711.632 1167.58 718.456 1154.5 715.213C1151.1 714.369 1148.26 712.398 1145.16 710.935C1137.37 707.264 1128.39 706.925 1119.38 706.734C1074.92 729.831 1037.48 761.967 1010.51 800.222C1010.77 803.588 1011.07 806.95 1011.44 810.309C1011.74 813.083 1012.13 815.98 1013.92 818.302Z" fill="#CACACA"/>
<path d="M1556.19 844.048C1547.88 846.231 1538.62 848.057 1530.77 844.862C1521.14 840.947 1515.56 830.202 1504.95 829.439C1501.46 829.189 1497.64 830.082 1494.62 828.55C1490.91 826.667 1490.49 822.3 1490.03 818.606C1489.53 814.646 1488.5 810.735 1486.98 806.975C1485.4 803.067 1483.2 799.232 1479.69 796.413C1474.23 792.03 1465.74 790.706 1458.85 793.164C1451.96 795.621 1447.02 801.727 1446.73 808.162C1446.65 809.992 1446.88 811.945 1445.85 813.545C1444.12 816.208 1439.96 816.55 1436.73 817.777C1430.9 819.988 1427.81 825.372 1424.18 829.887C1420.54 834.401 1414.5 838.706 1408.43 837.057C1405.8 836.345 1403.54 834.569 1400.79 834.506C1393.49 834.337 1390.82 845.576 1383.58 844.749C1380.42 844.387 1378.34 841.687 1377.34 839.072C1376.33 836.459 1375.92 833.599 1374.08 831.349C1370.08 826.461 1361.74 826.743 1354.85 827.413C1352.47 827.645 1349.56 827.657 1348.28 825.906C1347.59 824.959 1347.62 823.759 1347.75 822.646C1349.29 809.928 1361.33 799.998 1365.48 787.722C1367.54 781.616 1367.56 775.005 1365.53 768.89C1363.97 764.213 1361.24 759.243 1363.34 754.726C1365.04 751.075 1369.75 747.481 1367.48 744.067C1366.66 742.832 1365.1 742.12 1364 741.059C1360.49 737.672 1363.03 731.907 1367.47 729.458C1371.9 727.009 1377.43 726.784 1382.62 726.056C1391.1 724.871 1399.28 722.153 1406.49 718.131C1408.68 716.907 1410.97 715.312 1411.3 713.077C1412.06 707.936 1402.24 703.67 1405.42 699.269C1406.83 697.31 1409.98 697.101 1412.65 697.107C1418.07 697.121 1423.49 697.132 1428.92 697.145C1399.26 684.15 1367 674.956 1332.93 670.468C1332.85 670.553 1332.8 670.656 1332.72 670.735C1331.03 672.451 1328.62 673.497 1326.38 674.646C1320.44 677.681 1314.94 681.794 1308.15 682.839C1303.96 683.484 1299.67 682.883 1295.42 682.628C1291.62 682.399 1287.79 682.449 1283.99 682.779C1281.82 682.966 1279.26 683.512 1278.53 685.287C1278.28 685.899 1278.29 686.576 1278.04 687.186C1277.61 688.199 1276.51 688.87 1275.43 689.411C1271.71 691.278 1267.46 692.417 1264.21 694.859C1260.97 697.3 1259.1 701.778 1261.69 704.739C1262.9 706.11 1265.02 707.636 1263.99 709.105C1263.56 709.716 1262.71 709.985 1261.93 710.217C1258.51 711.229 1255.06 712.384 1252.29 714.387C1249.51 716.39 1247.48 719.396 1247.75 722.508C1247.96 724.932 1249.51 727.137 1249.9 729.544C1250.3 731.952 1248.72 734.996 1245.9 734.93C1245.32 734.916 1244.73 734.765 1244.16 734.87C1241.34 735.386 1243.53 739.909 1241.19 741.376C1240.12 742.052 1238.59 741.689 1237.44 741.114C1233.32 739.056 1231.29 734.974 1229.15 731.304C1227 727.631 1223.93 723.776 1219.24 723.06C1216.03 722.569 1212.78 723.693 1209.52 723.61C1196.98 723.295 1191.44 706.546 1178.89 706.47C1175.54 706.45 1171.6 707.553 1169.24 705.497C1167.91 704.333 1167.66 702.526 1166.53 701.214C1164.47 698.835 1160.43 698.852 1157 698.893C1153.56 698.936 1149.37 698.339 1148.14 695.567C1147.85 694.919 1147.85 694.236 1147.95 693.559C1138.15 697.547 1128.61 701.929 1119.39 706.722C1128.4 706.913 1137.38 707.254 1145.16 710.923C1148.27 712.386 1151.11 714.357 1154.51 715.201C1167.59 718.446 1175.25 711.62 1180.49 724.245C1184.77 734.555 1192.67 742.928 1207.12 742.868C1209.61 742.858 1212.36 742.631 1214.32 743.957C1215.56 744.803 1216.22 746.124 1217.17 747.222C1220.09 750.596 1226.23 751.46 1230.25 749.059C1234.14 761.507 1228.4 774.47 1223.98 786.784C1218.77 801.263 1215.3 816.206 1213.64 831.299C1213.25 834.856 1212.88 838.613 1210.51 841.539C1208.13 844.465 1202.96 846.029 1199.76 843.766C1195.58 840.808 1196.13 821.404 1194.62 816.485C1187.59 817.937 1187.77 823.356 1184.27 827.65C1179.96 832.926 1172.58 837.353 1166.42 840.848C1162.64 842.985 1158.41 845.187 1156.94 848.872C1155.36 852.87 1157.24 858.083 1157.31 862.274C1157.39 867.626 1158.14 873.038 1158.55 878.38C1158.75 880.999 1159.14 883.947 1161.54 885.561C1163.4 886.816 1165.95 886.885 1168.21 887.5C1176.26 889.697 1180.34 898.772 1188.71 899.741C1190.74 895.837 1191.11 891.311 1189.75 887.197C1189.42 886.216 1189 885.179 1189.33 884.199C1190.05 882.105 1193.36 881.918 1195.88 882.155C1202.02 882.734 1208.17 883.314 1214.31 883.893C1217.3 884.173 1220.75 884.718 1222.14 887.015C1223.77 889.709 1221.48 892.876 1219.22 895.205C1216.96 897.536 1214.46 900.491 1215.72 903.329C1216.42 904.904 1218.15 905.984 1218.98 907.513C1220.25 909.885 1219.05 912.717 1217.32 914.866C1215.59 917.015 1213.32 918.881 1212.15 921.292C1209.47 926.772 1214.79 933.628 1218.69 937.796C1223.61 943.053 1231.08 946.718 1239.03 946.661C1244.68 946.621 1250.42 945.081 1255.9 946.27C1261.07 947.389 1265.13 950.745 1269.86 952.864C1276.41 955.795 1284.04 956.276 1290.99 958.405C1309.81 964.166 1321.1 981.267 1324.96 998.19C1328.81 1015.11 1326.89 1032.58 1328.16 1049.79C1329.08 1062.29 1331.65 1075.19 1327.15 1087.1C1324.64 1093.76 1320.03 1099.73 1317.74 1106.44C1313.41 1119.13 1317.73 1133.23 1312.75 1145.74C1306.31 1161.91 1285.8 1171.9 1280.62 1188.41C1279.25 1192.79 1277.15 1198.79 1271.93 1198.25C1270.05 1198.06 1268.48 1196.92 1267.12 1195.79C1251.64 1182.89 1245.41 1162.9 1228.34 1151.6C1216.08 1143.49 1198.41 1139.83 1192.23 1127.61C1189.14 1121.51 1189.68 1114.28 1185.92 1108.46C1183.63 1104.92 1179.96 1102.23 1176.37 1099.63C1163.06 1089.97 1149.76 1080.32 1136.46 1070.66C1132.76 1067.98 1128.89 1065.07 1127.46 1061.09C1125.82 1056.5 1127.62 1050.94 1124.2 1047.15C1122.56 1045.33 1120.02 1044.33 1117.9 1042.93C1109.77 1037.61 1108.7 1026.94 1112.68 1018.83C1116.66 1010.72 1124.49 1004.58 1132.1 998.709C1138.64 993.662 1145.17 988.615 1151.71 983.568C1154.49 981.425 1157.38 979.138 1158.55 976.084C1159.53 973.509 1159.17 970.679 1160 968.063C1162.7 959.502 1175.33 957.558 1185.34 955.553C1195.35 953.549 1206.95 945.643 1202.16 937.796C1192.8 939.25 1191.24 925.349 1182.8 921.556C1179.29 919.974 1175.06 920.445 1171.13 920.927C1158.29 922.509 1143.74 923.403 1133.8 916.195C1126.31 910.767 1123.24 901.86 1115.96 896.222C1105.02 887.746 1086.18 887.776 1078.88 876.762C1076.66 873.417 1075.9 869.47 1073.66 866.135C1071.43 862.801 1066.71 860.076 1062.62 861.627C1061.78 870.123 1060.94 878.619 1060.09 887.114C1059.59 892.15 1054.98 899.045 1050.23 896.094C1048.35 894.927 1047.94 892.7 1047.68 890.714C1046.2 879.441 1044.72 868.168 1043.24 856.897C1042.92 854.44 1042.47 851.761 1040.37 850.084C1037.23 847.581 1031.99 848.511 1028.39 846.528C1021.07 842.501 1026.7 831.871 1022.09 825.521C1020.01 822.659 1016.09 821.106 1013.93 818.291C1012.14 815.968 1011.75 813.071 1011.45 810.294C1011.09 806.937 1010.78 803.573 1010.52 800.207C980.999 842.07 963.99 891.234 963.99 943.831C963.99 1096.56 1107.37 1220.38 1284.24 1220.38C1364.56 1220.38 1437.91 1194.79 1494.12 1152.61C1489.82 1152.39 1485.69 1151.28 1482.34 1148.94C1472.87 1142.33 1473.94 1129.95 1473.76 1119.43C1473.49 1104.56 1468.87 1089.76 1460.46 1076.78C1453.65 1066.28 1444.27 1056.66 1441.27 1044.92C1435.73 1023.3 1453.01 999.198 1441.42 979.445C1439.05 975.406 1435.58 971.865 1433.64 967.658C1429.74 959.187 1432.6 949.687 1434.1 940.659C1437.57 919.656 1422.59 910.752 1405.4 898.952C1399.01 894.565 1391.91 888.578 1393.7 881.701C1394.58 878.332 1397.56 875.44 1397.64 871.988C1397.74 867.674 1392.87 863.716 1394.13 859.394C1395.6 854.355 1401.1 854.014 1405.32 856.488C1410.83 859.717 1410.01 862.679 1417.37 861.219C1421.39 860.424 1425.41 857.444 1429.66 859.361C1432.37 860.581 1433.45 863.368 1434.75 865.754C1436.05 868.14 1438.52 870.634 1441.54 870.193C1442.33 870.077 1443.06 869.76 1443.82 869.536C1448.47 868.166 1453.67 870.455 1456.79 873.729C1459.92 877.004 1461.54 881.119 1463.63 884.964C1468.27 893.542 1475.46 901.08 1484.32 906.652C1490.87 910.771 1499.62 913.856 1506.93 910.838C1509.76 909.673 1512.23 907.64 1515.34 907.382C1522.05 906.826 1525.89 914.378 1532.37 915.988C1536.49 917.013 1540.84 915.423 1544.59 913.636C1552.39 909.927 1559.52 905.216 1567.45 901.734C1575.39 898.251 1584.53 896.026 1593.2 897.788C1595.79 898.314 1598.21 899.171 1600.5 900.262C1596.45 878.174 1589.39 856.953 1579.66 836.933C1571.94 839.579 1564.12 841.965 1556.19 844.048Z" fill="#E4E4E4"/>
</g>
<path d="M1372.29 661.033C1370.73 647.875 1367.05 634.747 1359.66 623.161C1358.12 620.749 1356.36 618.353 1353.82 616.687C1351.28 615.02 1347.8 614.196 1344.83 615.216C1340.03 616.871 1338.75 622.301 1339.43 626.731C1340.82 635.863 1347.25 643.722 1352.63 651.677C1363.86 668.289 1369.89 685.963 1373.82 704.756C1374.94 702.137 1373.21 699.819 1373.01 697.231C1372.7 693.236 1373.28 689.062 1373.33 685.051C1373.43 677.038 1373.24 669.01 1372.29 661.033Z" fill="#A458F5"/>
<path d="M1371.9 684.759C1373.18 664.092 1385.04 644.08 1403.71 631.093C1406.87 628.888 1410.55 626.789 1414.61 626.887C1420.05 627.018 1424.53 631.37 1425.25 636.032C1425.97 640.693 1423.57 645.385 1420.05 648.975C1416.53 652.564 1411.97 655.248 1407.51 657.946C1398.88 663.169 1390.35 668.685 1383.57 675.648C1376.79 682.614 1371.82 691.214 1371.41 700.306C1370.75 693.479 1371.38 686.56 1373.27 679.906" fill="#A458F5"/>
<path d="M1379 626.639C1383.22 608.917 1389.16 590.918 1402.14 576.717C1404.84 573.769 1407.92 570.941 1411.89 569.395C1415.85 567.85 1420.87 567.837 1424.24 570.206C1427 572.144 1428.24 575.362 1428.17 578.433C1428.09 581.504 1426.84 584.463 1425.36 587.254C1420.01 597.309 1411.53 605.82 1404.19 614.889C1390.71 631.796 1380.83 650.632 1375.4 670.634C1373.85 676.36 1372.73 682.139 1371.84 687.966C1371.96 683.986 1371.34 680.276 1371.14 676.346C1370.88 671.044 1372.05 665.473 1372.76 660.216C1374.27 648.953 1376.36 637.746 1379 626.639Z" fill="#A458F5"/>
<path d="M1177.63 667.373C1174.29 654.466 1172.96 641.006 1175.73 627.996C1176.3 625.287 1177.08 622.536 1178.88 620.26C1180.68 617.985 1183.69 616.249 1186.87 616.406C1192.04 616.662 1195.24 621.465 1196.22 625.852C1198.25 634.896 1195.03 644.108 1192.85 653.123C1188.28 671.951 1189.04 690.363 1192.21 709.264C1190.18 707.087 1190.98 704.415 1190.22 701.904C1189.04 698.031 1186.96 694.23 1185.45 690.439C1182.42 682.867 1179.66 675.199 1177.63 667.373Z" fill="#A458F5"/>
<path d="M1186.7 689.771C1177.9 670.519 1159.31 654.781 1136.85 647.562C1133.04 646.337 1128.79 645.348 1124.96 646.554C1119.85 648.165 1117.2 653.519 1118.23 658.137C1119.25 662.754 1123.25 666.549 1127.9 668.992C1132.55 671.435 1137.87 672.732 1143.09 674.073C1153.19 676.668 1163.3 679.568 1172.28 684.321C1181.27 689.073 1189.14 695.874 1192.86 704.386C1190.98 697.73 1187.85 691.34 1183.61 685.545" fill="#A458F5"/>
<path d="M1158.65 636.584C1148.16 620.926 1135.92 605.477 1118.4 595.555C1114.77 593.496 1110.8 591.657 1106.47 591.276C1102.14 590.895 1097.38 592.253 1095.05 595.423C1093.14 598.016 1093.14 601.408 1094.34 604.3C1095.54 607.191 1097.81 609.657 1100.24 611.898C1109 619.976 1120.17 625.729 1130.46 632.325C1149.43 644.679 1165.71 659.844 1178.2 677.333C1181.77 682.338 1184.95 687.515 1187.93 692.797C1186.36 689.055 1185.59 685.366 1184.33 681.584C1182.64 676.482 1179.48 671.518 1176.89 666.723C1171.32 656.457 1165.23 646.396 1158.65 636.584Z" fill="#A458F5"/>
<path d="M1293.07 733.278H1430.91V675.767H1293.07V733.278Z" fill="#4B2970"/>
<path d="M1326.94 711.174C1321.89 702.777 1326.08 692.126 1332 699.998C1335.72 704.935 1333.94 716.134 1342.52 719.889C1337.61 719.667 1328.73 714.147 1326.94 711.174Z" fill="white"/>
<path d="M1343.22 698.923C1345.61 695.836 1352.32 695.811 1351.5 700.479C1349.21 707.258 1338.32 709.525 1337.61 717.123C1333.67 712.284 1338.99 703.186 1343.22 698.923Z" fill="white"/>
<path d="M1336.63 691.308C1337.73 688.74 1341.82 684.045 1343.15 688.15C1342.74 693.515 1336.39 697.28 1336.19 702.942C1335.08 699.046 1334.99 695.11 1336.63 691.308Z" fill="white"/>
<path d="M1386.26 733.278H1430.91V675.767H1386.26V733.278Z" fill="#3F0082"/>
<path d="M1104.66 735.488H1242.51V677.977H1104.66V735.488Z" fill="#4B2970"/>
<path d="M1138.54 713.382C1133.49 704.985 1137.67 694.334 1143.59 702.206C1147.31 707.145 1145.53 718.342 1154.11 722.097C1149.2 721.875 1140.32 716.355 1138.54 713.382Z" fill="white"/>
<path d="M1154.81 701.131C1157.21 698.044 1163.91 698.019 1163.1 702.687C1160.8 709.466 1149.91 711.733 1149.21 719.331C1145.26 714.492 1150.58 705.394 1154.81 701.131Z" fill="white"/>
<path d="M1148.22 693.516C1149.32 690.948 1153.41 686.253 1154.74 690.358C1154.34 695.723 1147.98 699.488 1147.78 705.152C1146.67 701.252 1146.58 697.318 1148.22 693.516Z" fill="white"/>
<path d="M1197.86 735.488H1242.51V677.977H1197.86V735.488Z" fill="#3F0082"/>
<path d="M1403.08 149.552C1384.22 130.548 1347.77 129.528 1327.53 147.434C1310.97 124.77 1270.84 127.92 1253.72 148.623C1238.38 130.105 1205.11 127.232 1185.83 142.754C1192.93 78.314 1271.6 59.8456 1334.29 76.3078C1372.14 86.4515 1394 116.234 1403.08 149.552Z" fill="#A458F5"/>
<path d="M1189.45 140.658L1305 195.82L1400.3 147.255" stroke="#A458F5" stroke-miterlimit="10" stroke-linecap="round" stroke-linejoin="round"/>
<path d="M1255.34 146.353L1305.89 195.528L1326.98 145.201" stroke="#A458F5" stroke-miterlimit="10" stroke-linecap="round" stroke-linejoin="round"/>
<path d="M1386.11 175.16L1239.66 193.927L1249.28 249.902L1395.73 231.135L1386.11 175.16Z" fill="#49225B"/>
<path d="M1337.5 218.471C1330.7 210.349 1333.16 198.627 1340.79 206.08C1345.57 210.755 1345.72 222.727 1355.39 225.51C1350.21 225.937 1339.91 221.346 1337.5 218.471Z" fill="white"/>
<path d="M1352.35 203.448C1354.3 199.892 1361.32 198.965 1361.31 203.964C1360.12 211.377 1349.12 215.214 1349.75 223.271C1344.75 218.73 1348.68 208.482 1352.35 203.448Z" fill="white"/>
<path d="M1344.07 196.354C1344.76 193.514 1348.2 188.044 1350.33 192.169C1350.88 197.846 1344.9 202.644 1345.71 208.605C1343.84 204.669 1343.04 200.557 1344.07 196.354Z" fill="white"/>
<path d="M1300.16 186.174L1239.66 193.926L1249.28 249.901L1309.78 242.148L1300.16 186.174Z" fill="#3F0082"/>
<path d="M1224.55 443.072C1216.1 459.438 1201.95 482.145 1191.76 497.073C1214.18 508.681 1196.75 510.816 1224.65 488.714C1251.4 463.749 1262.86 427.497 1254.5 394.717C1253.31 391.721 1250.7 386.514 1245.76 388.982C1232.65 404.202 1231.3 425.343 1224.55 443.072Z" fill="#F3D9BC"/>
<path d="M1240.98 456.439C1238.35 452.451 1233.38 448.369 1227.82 447.961C1231.61 451.354 1235.42 455.185 1240.98 456.439Z" fill="#C99CEB"/>
<path d="M1332.99 346.199C1335.78 356.414 1334.78 369.659 1319.16 369.515C1313.49 398.719 1260.8 399.326 1256.64 369.18C1239.79 369.255 1235.86 357.838 1242.98 346.031C1247.96 334.183 1246.86 319.768 1257.27 309.852C1268.24 298.481 1287.13 298.352 1302.91 302.738C1311.3 305.069 1318.45 310.033 1322.65 316.721C1328.29 325.701 1330.89 336.44 1332.99 346.199Z" fill="black"/>
<path d="M1250.23 501.827C1234.5 571.31 1228.89 642.5 1233.59 713.184C1233.55 712.57 1251.95 712.64 1254.05 712.64C1270.36 643.412 1283.27 566.107 1297.84 504.609" fill="black"/>
<path d="M1257.97 738.168C1257.37 727.699 1257.34 717.208 1257.89 706.737C1248.71 707.75 1239.3 708.755 1230.29 706.945C1230.16 711.454 1229.32 716.427 1229.19 720.936C1222.58 725.609 1214.03 728.356 1205.6 729.586C1203.4 729.908 1201.07 730.135 1199.27 731.269C1197.47 732.403 1196.52 734.829 1197.99 736.283C1198.71 737.002 1199.83 737.314 1200.89 737.574C1212.42 740.393 1224.73 740.796 1236.48 738.742C1240.2 738.09 1243.96 737.191 1247.74 737.54C1251.36 737.871 1254.67 739.501 1257.97 738.168Z" fill="#606DCF"/>
<path d="M1292.2 508.411C1299.8 579.041 1311.31 649.357 1326.68 719.04H1349.86C1344.53 649.364 1342.79 578.158 1335.37 508.625" fill="black"/>
<path d="M1351.38 738.168C1350.78 727.699 1349.41 718.365 1349.96 707.895C1340.78 708.908 1331.37 709.912 1322.36 708.102C1322.23 712.612 1322.73 716.427 1322.6 720.936C1315.99 725.609 1307.44 728.356 1299.01 729.586C1296.81 729.908 1294.48 730.135 1292.68 731.269C1290.88 732.403 1289.93 734.829 1291.4 736.283C1292.12 737.002 1293.24 737.314 1294.3 737.574C1305.83 740.393 1318.14 740.796 1329.89 738.742C1333.61 738.09 1337.37 737.191 1341.14 737.54C1344.77 737.871 1348.08 739.501 1351.38 738.168Z" fill="#606DCF"/>
<path d="M1318.99 484.872C1320.91 468.368 1348.53 385.646 1325.03 382.799C1305.91 376.762 1263.64 375.436 1245.91 383.984C1223.12 411.673 1237.95 449.978 1247.12 480.049" fill="#BC7BD3"/>
<path d="M1254.27 381.95C1245.54 392.39 1243.46 405.898 1243.5 418.774C1243.56 438.083 1247.83 457.375 1256.01 475.343" stroke="#CB93E0" stroke-miterlimit="10" stroke-linecap="round" stroke-linejoin="round"/>
<path d="M1265.29 379.841C1252.38 408.793 1254.56 443.888 1266.71 474.69" stroke="#CB93E0" stroke-miterlimit="10" stroke-linecap="round" stroke-linejoin="round"/>
<path d="M1321.64 381.95C1309.74 411.368 1307.28 444.486 1313.54 475.174" stroke="#CB93E0" stroke-miterlimit="10" stroke-linecap="round" stroke-linejoin="round"/>
<path d="M1310.36 380.227C1290.04 408.716 1295.46 445.138 1293.01 477.543" stroke="#CB93E0" stroke-miterlimit="10" stroke-linecap="round" stroke-linejoin="round"/>
<path d="M1281.54 387.058C1274.82 415.688 1273.58 447.524 1278.03 476.511" stroke="#CB93E0" stroke-miterlimit="10" stroke-linecap="round" stroke-linejoin="round"/>
<path d="M1296.09 347.586C1296.26 358.925 1297.25 369.621 1297.25 381.546C1287.9 385.868 1278.17 387.642 1267.83 385.638C1267.71 377.366 1267.49 369.15 1267.82 360.884" fill="#F3D9BC"/>
<path d="M1296.17 361.734C1293.86 369.747 1277.7 375.643 1267.68 376.176C1267.81 371.941 1267.51 367.846 1267.64 363.611" fill="#C99CEB"/>
<path d="M1304.96 349.296C1302.68 366.912 1269.3 378.566 1258.2 361.039C1254.99 348.521 1250.69 332.812 1257.99 321.009C1276.34 296.692 1318.38 326.749 1304.96 349.296Z" fill="#F3D9BC"/>
<path d="M1309.36 335.912C1310.66 341.019 1305.31 346.225 1301.15 349.312C1297.15 352.285 1295.9 346.759 1295.36 344.502C1294.22 339.794 1294.53 334.863 1296.36 330.312C1288.8 328.019 1281.24 325.727 1273.68 323.436C1269.51 329.705 1260.34 333.155 1252.18 331.529C1251.12 331.335 1252.56 324.006 1252.89 322.962C1253.52 320.994 1254.52 319.118 1255.9 317.459C1258.55 314.266 1262.46 312.049 1266.73 310.775C1276.02 308 1286.9 309.222 1295.59 312.997C1304.42 316.835 1311.24 323.925 1311.18 332.772C1311.16 335.281 1310.62 337.774 1309.73 340.157" fill="black"/>
<path d="M1306.13 341.49C1307.71 320.481 1278.72 302.192 1256.17 311.263C1261.62 301.637 1274.26 301.678 1285.45 304.729C1303.92 309.759 1319.37 328.63 1308.82 343.962" fill="#A458F5"/>
<path d="M1279.98 331.63C1279.07 331.588 1277.95 331.747 1277.63 332.483C1277.36 333.104 1277.86 333.812 1278.54 334.12C1279.22 334.427 1280.02 334.44 1280.79 334.46C1282.15 334.496 1283.51 334.579 1284.86 334.73C1286.05 334.863 1287.39 335.297 1288.56 335.269C1288.5 334.352 1286.29 333.361 1285.48 332.979C1283.79 332.19 1281.9 331.716 1279.98 331.63Z" fill="black"/>
<path d="M1265.83 331.63C1266.74 331.588 1267.86 331.747 1268.18 332.483C1268.46 333.104 1267.95 333.812 1267.27 334.12C1266.59 334.427 1265.79 334.44 1265.02 334.46C1263.66 334.496 1262.3 334.579 1260.95 334.73C1259.76 334.863 1258.42 335.297 1257.25 335.269C1257.31 334.352 1259.52 333.361 1260.33 332.979C1262.02 332.19 1263.91 331.716 1265.83 331.63Z" fill="black"/>
<path d="M1280.54 342.886C1280.17 343.314 1279.58 343.658 1278.98 343.575C1278.53 343.514 1278.16 343.229 1277.9 342.904C1277.1 341.904 1277.17 340.233 1278.38 339.479C1279.61 338.704 1280.72 339.58 1281.04 340.657C1281.26 341.422 1281.08 342.251 1280.54 342.886Z" fill="black"/>
<path d="M1262.8 342.813C1262.46 343.219 1261.9 343.547 1261.32 343.469C1260.89 343.411 1260.54 343.139 1260.29 342.831C1259.53 341.879 1259.6 340.289 1260.75 339.571C1261.93 338.835 1262.98 339.668 1263.28 340.692C1263.49 341.42 1263.32 342.209 1262.8 342.813Z" fill="black"/>
<path d="M1281.6 356.034C1280.21 360.343 1272.22 361.011 1269.32 357.785" stroke="black" stroke-miterlimit="10" stroke-linecap="round" stroke-linejoin="round"/>
<path d="M1305.54 354.762C1297.85 353.79 1297.37 340.137 1305.07 338.653C1307.72 338.141 1310.6 339.212 1312.29 341.045C1313.99 342.879 1314.58 345.356 1314.26 347.687C1314.01 349.596 1313.14 351.481 1311.59 352.855C1310.03 354.232 1307.75 355.041 1305.54 354.762Z" fill="#F3D9BC"/>
<path d="M1307.47 346.801C1313.6 342.477 1307.88 340.497 1304.41 345.701C1306.15 345.784 1306.41 348.023 1304.72 348.401C1304.78 353.205 1309.2 349.931 1307.54 348.19" fill="#C99CEB"/>
<path d="M1270.49 337.001C1270.53 341.347 1268.16 345.194 1266.03 348.934C1266.11 351.764 1270.3 351.216 1272.22 350.053" stroke="black" stroke-miterlimit="10" stroke-linecap="round" stroke-linejoin="round"/>
<path d="M1220.12 635.146C1214.49 574.663 1226.91 527.484 1243.01 492.409C1244.3 489.579 1245.64 486.792 1247.02 484.043H1323.59C1325.45 486.974 1327.27 489.96 1329.04 493.003C1348.71 526.808 1366.39 573.867 1366.2 636.536C1317.51 636.073 1268.82 635.611 1220.12 635.146Z" fill="#606DCF"/>
<path d="M1329.18 488.644C1328.18 483.896 1326.68 478.545 1325.69 473.798H1244.25C1243.54 479.349 1243.04 484.592 1242.33 490.143" fill="#606DCF"/>
<path d="M1241.41 635.296C1241.95 591.573 1245.31 543.607 1261.63 502.216C1247.09 543.804 1246.1 591.982 1249.03 635.349" fill="#A03EB1"/>
<path d="M1329.55 636.01C1330 606.992 1325.15 578.128 1320.32 549.408C1317.6 533.267 1314.89 517.127 1312.17 500.988C1325.83 545.268 1334.75 590.432 1339.17 636.097" fill="#A03EB1"/>
<path d="M1279.1 635.559C1275.93 590.433 1280.69 544.797 1287.87 500.016C1287.25 545.492 1287.03 590.135 1289.29 635.573" fill="#A03EB1"/>
<path d="M1123.7 553.393H1269.68V484.572H1123.7V553.393Z" fill="#49225B"/>
<path d="M1171.35 527.557C1176.94 518.269 1172.31 506.489 1165.76 515.195C1161.65 520.657 1163.62 533.042 1154.13 537.195C1159.55 536.952 1169.38 530.845 1171.35 527.557Z" fill="white"/>
<path d="M1153.35 514.008C1150.7 510.594 1143.29 510.566 1144.19 515.727C1146.73 523.225 1158.77 525.732 1159.55 534.136C1163.91 528.784 1158.03 518.723 1153.35 514.008Z" fill="white"/>
<path d="M1160.64 505.586C1159.42 502.745 1154.9 497.551 1153.43 502.092C1153.88 508.026 1160.9 512.191 1161.13 518.453C1162.35 514.142 1162.45 509.79 1160.64 505.586Z" fill="white"/>
<path d="M1202.04 553.393H1271.97V484.572H1202.04V553.393Z" fill="#3F0082"/>
<path d="M1243.5 508.658C1241.84 512.677 1237.92 515.638 1234.01 518.248C1230.17 520.816 1226.06 523.285 1221.34 524.28C1220.44 524.469 1219.42 524.585 1218.65 524.13C1217.89 523.676 1217.83 522.437 1218.71 522.205C1217.53 523.157 1215.39 522.976 1214.45 521.844C1213.5 520.712 1213.98 518.901 1215.41 518.236C1213.93 518.674 1212.03 518.75 1211.08 517.681C1210.46 516.974 1210.48 515.963 1210.87 515.139C1211.25 514.317 1211.96 513.638 1212.65 512.979C1211.69 513.479 1210.36 513.831 1209.55 513.169C1209.04 512.75 1208.95 512.048 1209.16 511.466C1209.37 510.885 1209.83 510.395 1210.28 509.93C1213.36 506.764 1216.85 503.898 1220.66 501.401C1219.27 500.671 1217.53 501.449 1216.03 502.004C1214.41 502.608 1212.66 502.948 1210.89 503.002C1210.29 503.021 1209.66 503.002 1209.11 502.789C1208.56 502.575 1208.1 502.122 1208.08 501.6C1208.06 500.973 1208.65 500.472 1209.21 500.068C1212.44 497.71 1216.05 495.674 1220.05 494.502C1224.06 493.328 1228.49 493.061 1232.52 494.179" fill="#F3D9BC"/>
<path d="M1222.63 506.283C1228.45 505.224 1213.16 513.512 1211.44 513.698C1215.36 511.524 1219.19 509.052 1222.63 506.283Z" fill="#C99CEB"/>
<path d="M1226.82 509.936C1230.99 509.991 1216.75 518.334 1214.91 518.639C1219.04 515.945 1222.86 512.831 1226.82 509.936Z" fill="#C99CEB"/>
<path d="M1230.71 513.522C1230.85 513.418 1231.01 513.309 1231.2 513.305C1231.54 513.299 1231.76 513.673 1231.67 513.96C1231.58 514.247 1231.29 514.454 1231.03 514.643C1229.53 515.699 1228.03 516.757 1226.53 517.813C1223.78 519.738 1220.96 521.759 1217.58 522.814C1219.32 522.121 1220.81 520.665 1222.27 519.609C1224.07 518.312 1225.86 517.018 1227.66 515.721C1228.68 514.988 1229.69 514.255 1230.71 513.522Z" fill="#C99CEB"/>
<path d="M1332.33 416.425C1326.24 434.011 1309.85 450.477 1296.08 463.721C1290.79 457.618 1284.38 452.835 1278.85 446.882C1290.16 428.164 1296.55 403.779 1314.35 389.302C1336.79 371.046 1335.51 402.839 1332.33 416.425Z" fill="#F3D9BC"/>
<path d="M1224.65 501.805C1241.45 485.855 1254.91 467.115 1273.19 452.057C1281.87 443.634 1290.22 436.291 1299.91 448.686C1309.89 460.94 1284.56 473.361 1276.69 481.959C1263.15 493.091 1249.79 504.413 1235.94 515.248" fill="#F3D9BC"/>
<path d="M1295.23 457.007C1296.31 458.228 1296.68 459.891 1296.21 461.371C1296.87 460.368 1297.53 459.34 1297.76 458.206C1297.99 457.072 1297.7 455.791 1296.7 455.031C1295.88 454.406 1294.7 454.227 1293.61 454.34C1292.78 454.426 1291.77 454.632 1291.07 455.016C1292.71 455.437 1294.12 455.759 1295.23 457.007Z" fill="#C99CEB"/>
</g>
<defs>
<clipPath id="clip0_291_2107">
<rect width="1440" height="829" fill="white"/>
</clipPath>
</defs>
</svg>
