<svg width="32" height="32" viewBox="0 0 32 32" fill="none" xmlns="http://www.w3.org/2000/svg">
<rect width="32" height="32" rx="6" fill="black"/>
<path d="M12.2858 11.3714C13.4093 11.9972 14.2932 12.9001 14.9366 14.0792C15.5799 15.2589 15.9017 16.6376 15.9017 18.2162C15.9017 19.7947 15.5802 21.1737 14.9366 22.3531C14.2932 23.5328 13.4093 24.4351 12.2858 25.0609C11.1619 25.6868 9.88787 26 8.46368 26C7.0395 26 5.76134 25.6871 4.62893 25.0609C3.49653 24.4351 2.60851 23.5325 1.96516 22.3531C1.32181 21.1737 1 19.7947 1 18.2162C1 16.6376 1.32154 15.2589 1.96516 14.0792C2.60851 12.9001 3.49653 11.9972 4.62893 11.3714C5.76134 10.7456 7.0395 10.4324 8.46368 10.4324C9.88787 10.4324 11.1616 10.7453 12.2858 11.3714ZM6.34049 15.4265C5.76547 16.0709 5.47837 17.0009 5.47837 18.2162C5.47837 19.4314 5.76547 20.3573 6.34049 20.9922C6.91524 21.6276 7.62306 21.9446 8.46368 21.9446C9.30431 21.9446 10.008 21.6273 10.5742 20.9922C11.1404 20.3573 11.4236 19.432 11.4236 18.2162C11.4236 17.0004 11.1404 16.0709 10.5742 15.4265C10.008 14.7826 9.30431 14.4603 8.46368 14.4603C7.62306 14.4603 6.91496 14.7826 6.34049 15.4265Z" fill="url(#paint0_linear_301_453)"/>
<path d="M27.448 6.92238C28.5517 7.53713 29.4199 8.42401 30.052 9.58214C30.684 10.7409 31 12.0951 31 13.6457C31 15.1962 30.684 16.5507 30.052 17.7092C29.4199 18.8679 28.5517 19.7542 27.448 20.3689C26.3439 20.9837 25.0925 21.2911 23.6939 21.2911C22.2954 21.2911 21.0395 20.9837 19.9273 20.3689C18.815 19.7542 17.9427 18.8676 17.3109 17.7092C16.6788 16.5507 16.3628 15.1962 16.3628 13.6457C16.3628 12.0951 16.6788 10.7409 17.3109 9.58214C17.9429 8.42401 18.815 7.53713 19.9273 6.92238C21.0395 6.30762 22.2948 6.00024 23.6939 6.00024C25.0931 6.00024 26.3439 6.30762 27.448 6.92238ZM21.6082 10.9055C21.0434 11.5383 20.7613 12.452 20.7613 13.6457C20.7613 14.8393 21.0434 15.7486 21.6082 16.3724C22.1728 16.9965 22.8679 17.308 23.6939 17.308C24.52 17.308 25.2107 16.9962 25.767 16.3724C26.3233 15.7489 26.6013 14.8399 26.6013 13.6457C26.6013 12.4514 26.3233 11.5383 25.767 10.9055C25.2107 10.2732 24.5197 9.95653 23.6939 9.95653C22.8682 9.95653 22.1728 10.2732 21.6082 10.9055Z" fill="url(#paint1_linear_301_453)"/>
<path d="M17.3105 17.7091C17.2656 17.6269 17.2245 17.5427 17.1829 17.4585L14.7941 19.7462L10.8985 17.0075C10.2444 16.5477 9.36796 16.6821 8.86431 17.3192L6.15039 20.7531C6.2099 20.8368 6.27245 20.9175 6.3405 20.9923C6.91525 21.6275 7.62307 21.9448 8.46369 21.9448C8.48574 21.9448 8.50668 21.9422 8.52844 21.9416C9.35667 20.9221 10.1719 19.9245 10.1719 19.9245L14.4776 22.674C14.8991 22.9432 15.4383 22.8867 15.8015 22.5348L18.8325 19.6072C18.2261 19.0866 17.7177 18.4549 17.3105 17.7085V17.7091Z" fill="url(#paint2_linear_301_453)"/>
<path d="M29.4247 6.43843L23.8079 7.12923C23.3736 7.18254 23.1827 7.7367 23.4827 8.07292L25.0957 9.88135L20.7729 14.0209C20.8272 15.0313 21.1047 15.8162 21.6083 16.3724C21.7001 16.4738 21.796 16.5659 21.8949 16.6507L26.9136 11.8037L28.5414 13.3648C28.8767 13.6861 29.4153 13.4755 29.4718 13.0009L30.1612 7.22479C30.2152 6.77203 29.8534 6.38569 29.4247 6.43843Z" fill="url(#paint3_linear_301_453)"/>
<defs>
<linearGradient id="paint0_linear_301_453" x1="1" y1="18.2162" x2="15.9017" y2="18.2162" gradientUnits="userSpaceOnUse">
<stop stop-color="#9D5EFF"/>
<stop offset="1" stop-color="#3F0082"/>
</linearGradient>
<linearGradient id="paint1_linear_301_453" x1="16.3628" y1="13.6457" x2="31" y2="13.6457" gradientUnits="userSpaceOnUse">
<stop stop-color="#9D5EFF"/>
<stop offset="1" stop-color="#3F0082"/>
</linearGradient>
<linearGradient id="paint2_linear_301_453" x1="12.4914" y1="16.7351" x2="12.4914" y2="22.8431" gradientUnits="userSpaceOnUse">
<stop stop-color="#E3C9FF"/>
<stop offset="1" stop-color="#A76AE8"/>
</linearGradient>
<linearGradient id="paint3_linear_301_453" x1="25.4697" y1="6.43359" x2="25.4697" y2="16.6507" gradientUnits="userSpaceOnUse">
<stop stop-color="#E3C9FF"/>
<stop offset="1" stop-color="#A76AE8"/>
</linearGradient>
</defs>
</svg>
