<?xml version="1.0" encoding="UTF-8"?>
<svg id="Layer_1" xmlns="http://www.w3.org/2000/svg" version="1.1" viewBox="0 0 4517.2 2104.9">
  <!-- Generator: Adobe Illustrator 29.2.1, SVG Export Plug-In . SVG Version: 2.1.0 Build 116)  -->
  <defs>
    <style>
      .st0 {
        fill: #05c452;
      }

      .st1 {
        fill: #3f0082;
      }
    </style>
  </defs>
  <path class="st1" d="M906.3,864.1c36.4,23.1,65.1,56.1,86.2,99.2,21,43.1,31.6,94.1,31.6,152.8s-10.5,108.9-31.6,152.3c-21,43.4-49.8,76.7-86.2,99.7-36.4,23.1-77.7,34.6-123.8,34.6s-79.5-9.7-110.2-29.1c-30.7-19.4-53.1-45.8-67.1-79.2v101.2h-171.4v-741.7h0c94.7,0,171.4,76.7,171.4,171.4v112.2c14-33.4,36.4-59.8,67.1-79.2,30.7-19.4,67.5-29.1,110.2-29.1s87.4,11.5,123.8,34.6ZM638.7,1016.4c-23.1,24.4-34.6,57.6-34.6,99.7s11.5,74.5,34.6,99.2c23.1,24.7,52.6,37.1,88.7,37.1s66.3-12,88.7-36.1c22.4-24.1,33.6-57.5,33.6-100.2s-11.2-76.2-33.6-100.2c-22.4-24.1-52-36.1-88.7-36.1s-65.6,12.2-88.7,36.6Z"/>
  <g>
    <path class="st1" d="M1149.4,1395.8c19.2-93.9,46.8-185.8,83.1-275.1v-89.9c-53,116.5-91.6,239.1-116.2,365h33.1Z"/>
    <path class="st1" d="M1232.5,1263.5c-13.6,43.9-25.2,88-35,132.3h35v-132.3Z"/>
    <path class="st1" d="M1225.7,1277.2c2.2-7.4,4.5-14.8,6.7-22.1v-119.5c-32.5,84.1-57.5,170.9-75.8,260.2h39.5c4.7-21.9,9.8-43.4,15.2-66.4,4.7-17.8,9.7-34.3,14.4-52.2Z"/>
    <path class="st1" d="M1106.6,1112.8c33.9-94.4,75.8-184.7,125.8-269.4v-17.8c0-94.7-76.7-171.4-171.4-171.4h0v606.5c12.8-49.5,28-98.7,45.6-147.9Z"/>
    <path class="st1" d="M1061.1,1271.1v124.7h11.8c.2-1.1.4-2.2.5-3.4,30.3-162.8,83.3-319.3,159.1-463v-80.7c-52.3,88.6-95.6,183.3-130,283.2-15.9,46.4-29.6,92.7-41.3,139.1Z"/>
    <path class="st1" d="M1075.6,1395.8h36.8c15.7-78.1,36.9-155.7,64-232.7,16.7-47.6,35.4-94.1,56.1-139.4v-89.6c-68.1,128.2-116.1,264.1-147,410.6-3.5,17.2-6.8,34.2-9.9,51.1Z"/>
  </g>
  <path class="st1" d="M1667.8,900.7c40.8,21.5,72.9,52.5,96.2,92.9,23.4,40.5,35,87.8,35,142s-11.7,101.5-35,142c-23.4,40.5-55.4,71.5-96.2,92.9-40.8,21.5-87,32.2-138.7,32.2s-98.1-10.7-139.2-32.2c-41.1-21.5-73.3-52.5-96.7-92.9-23.4-40.5-35-87.8-35-142s11.7-101.5,35-142c23.4-40.5,55.6-71.5,96.7-92.9,41.1-21.5,87.5-32.2,139.2-32.2s97.9,10.7,138.7,32.2ZM1452.1,1039.9c-20.9,22.1-31.3,54-31.3,95.8s10.4,73.5,31.3,95.3c20.9,21.8,46.5,32.7,77.1,32.7s56-10.9,76.6-32.7c20.6-21.8,30.8-53.6,30.8-95.3s-10.3-73.6-30.8-95.8c-20.6-22.1-46.1-33.2-76.6-33.2s-56.2,11.1-77.1,33.2Z"/>
  <path class="st1" d="M2218.1,748c40.1,21.1,71.6,51.5,94.5,91.3,22.9,39.8,34.4,86.3,34.4,139.5s-11.5,99.7-34.4,139.5c-22.9,39.8-54.4,70.2-94.5,91.3-40.1,21.1-85.5,31.7-136.3,31.7s-96.3-10.6-136.7-31.7c-40.4-21.1-72-51.5-95-91.3-22.9-39.8-34.4-86.2-34.4-139.5s11.5-99.7,34.4-139.5c22.9-39.8,54.6-70.2,95-91.3,40.4-21.1,85.9-31.7,136.7-31.7s96.2,10.6,136.3,31.7ZM2006.2,884.7c-20.5,21.7-30.7,53.1-30.7,94.1s10.2,72.2,30.7,93.6c20.5,21.4,45.7,32.1,75.7,32.1s55.1-10.7,75.2-32.1c20.2-21.4,30.3-52.6,30.3-93.6s-10.1-72.3-30.3-94.1c-20.2-21.7-45.3-32.6-75.2-32.6s-55.2,10.9-75.7,32.6Z"/>
  <g>
    <path class="st1" d="M2423.5,1357.4c68.9-196.4,171.7-374.4,310.2-523.1-24.4,2.8-46.6,9.2-66.8,19.4-1.6,1.9-3.3,3.8-4.9,5.7-5.4,6.2-9.5,12-14.9,18.2-2.7,3.1-4.5,6.7-7.3,9.8-2.7,3.1-5,5.3-7.7,8.4-90.9,115-161.4,235.6-214.3,364.4v113.8c1.9-5.5,3.8-11,5.7-16.5Z"/>
    <path class="st1" d="M2660.1,857.2c-1.4.8-2.8,1.6-4.2,2.4-30.3,18-52.8,42.6-67.4,73.9h0c0-13.8-3-27-8.3-38.9-63.3,81.6-117.4,170.2-162.4,264.6v96.4c59.7-144.8,140.5-279.6,242.4-398.5Z"/>
    <path class="st1" d="M2874,861.5c-11.4-6.7-23.3-12.3-35.9-16.7-22.2,22.9-43.8,46.8-64.8,71.5-5.4,6.2-9.5,12-14.9,18.2-2.7,3.1-4.5,6.7-7.3,9.8-2.7,3.1-5,5.3-7.7,8.4-7.7,9.7-15.2,19.5-22.6,29.3,14.1,2.2,26.6,6.6,37.5,13.3.4-.6.9-1.1,1.3-1.7,19.9-25.7,39.4-48.4,60.2-73.6,17.4-21,35.6-39.3,54.3-58.5Z"/>
    <path class="st1" d="M2417.8,980.7c29.7-48.6,62.2-95.2,97.4-139.6-6.9-1.6-14.1-2.4-21.5-2.4h-25.2c-17.6,22.7-34.5,45.9-50.7,69.6v72.5Z"/>
    <path class="st1" d="M2555.2,861.3c-32.3,40.9-60.1,81.2-88.6,124.8-17.8,27.1-32.9,55.5-48.8,83.6v83.9c44.7-93.3,98.2-181.3,160.8-262.3-5.7-11.5-13.7-21.7-23.4-30Z"/>
    <path class="st1" d="M2417.8,981.3v82.7c39.3-71.9,84.3-140.5,134.9-204.7-10.5-8.4-22.8-14.5-36.3-17.8-.3.4-.6.8-.9,1.2-2.7,3.1-5,5.3-7.7,8.4-32.6,42.9-62.6,86.1-90,130.2Z"/>
    <path class="st1" d="M2420.5,900.7c14.5-19.5,26.8-39.1,42.6-59.1.8-1,1.6-2,2.3-3h-47.6c0,0,0,.1-.1.2v65.9c.9-1.3,1.8-2.7,2.7-4Z"/>
    <path class="st1" d="M2586.8,1395.8h1.7v-4.7c-.6,1.6-1.2,3.1-1.7,4.7Z"/>
    <path class="st1" d="M2700.6,937.5c28.6-37.4,58.2-71.2,89.3-103.4-9-1-18.2-1.5-27.6-1.5s-15.3.3-22.6,1c-41,44.2-78.6,89-114.1,138.5-30.9,44.9-59.9,88.4-85.9,134.6-49.6,88.1-90.1,180.6-121.8,276v13h31.6c35.2-102.7,81.4-202.3,139.2-297.8.4-37.5,10.4-66.3,29.9-86.5,12.4-12.8,27.4-21.6,45.2-26.5,9.5-13.1,19.3-26.1,29.3-39,2.7-3.1,5-5.3,7.7-8.4Z"/>
    <path class="st1" d="M2543.4,1395.8h41.5c1.2-3.2,2.4-6.5,3.7-9.7v-101.8c-16.4,36.4-31.5,73.6-45.1,111.4Z"/>
    <path class="st1" d="M3352.8,1191c-.2,20.1,0,39.4,3,60,1.3,9.7,2.9,18.6,4.6,27.6v-153c-1.1,5.6-2,11.4-3,17.3-2.4,15.6-3.9,31.7-4.5,48.3Z"/>
    <path class="st1" d="M2588.5,1104.8c-54.9,92.9-98.8,190.1-132.7,291h41.4c25.7-74.3,55.9-144.7,91.3-212.1v-78.9Z"/>
    <path class="st1" d="M3347,1182.4c1.1-29.2,5.6-58,13.3-85.7v-24.5c0-75.2-19.6-133.9-58.9-176.2-39.1-42.1-92.8-63.2-160.9-63.4-65.1,52.6-125.8,112.4-182.1,178.6-5.4,6.2-9.5,12-14.9,18.2-2.7,3.1-4.5,6.7-7.3,9.8-2.7,3.1-5,5.3-7.7,8.4-46.7,59-88,119.6-124.3,181.9v166.2h170.7v-295.5c0-37.9,9.8-67.4,29.5-88.4,19.6-21,46.4-31.4,80.4-31.4s58.4,9.8,77.4,29.5c19,19.6,28.5,47.1,28.5,82.4v303.5h169.7v-87.8c-10.3-40.5-15.1-82.6-13.3-125.5Z"/>
    <path class="st1" d="M3059.9,847.7c-10.9,4.4-21.4,9.7-31.6,15.9-33.6,20.6-60.1,48.3-79.4,82.9-4.5-10-9.7-19.4-15.5-28.1-16.8,17.8-33.2,36.2-49,55-2.7,3.1-4.5,6.7-7.3,9.8-5.4,6.2-10.4,11.5-15.8,17.7-20.8,25.7-39.7,51-57.8,76.9.4,4.7.6,9.5.6,14.5v51.4c70.5-109.9,155.6-209.6,255.7-296Z"/>
    <path class="st1" d="M3089.4,873.9c11.7-9.7,22.1-19,33.8-28.7,5.2-4.2,10.3-8.4,15.5-12.5-24.5,0-47.8,4-69.8,11.6-.8.7-1.7,1.4-2.5,2.1-102.7,88.5-190.1,190.2-262.3,302.7v75.4c75.4-130.4,170.5-249,285.2-350.6Z"/>
    <path class="st1" d="M2588.5,1280.3v-89.4c-30.9,59.3-57.7,120.8-81.6,185.7-2.3,6.4-4.6,12.8-6.9,19.2h41.2c14.3-39,30-77.5,47.2-115.5Z"/>
    <path class="st1" d="M2906.2,885.8c-12.3,12.5-24.3,25.2-36.1,38.1-20.1,22.4-39.6,45.8-58.4,70.6-2.7,3.1-5,5.3-7.7,8.4-5.6,7.3-11,14.6-16.4,21.9,8.2,13.4,13.4,29.3,15.4,47.9,39-55.5,81.9-108.1,128.5-157.2-7.5-11-15.9-20.9-25.4-29.8Z"/>
    <path class="st1" d="M2836.1,844.1c-13.7-4.6-28.2-7.8-43.4-9.7-44.5,46.3-86,96.2-124.7,149.4,9.7-2.3,20.1-3.4,31.3-3.4s12.2.4,17.9,1.1c16-21,32.7-41.9,50.1-62.5,22.6-26.2,45.3-51.1,68.7-74.9Z"/>
    <path class="st1" d="M2876.6,863.1c-41.8,42.2-80.6,86.8-116.4,133.4,5.8,3.8,11.2,8.2,16,13.4,4.2,4.4,7.9,9.3,11.1,14.5,26-34.8,53.6-68.3,82.8-100.4,11.8-13.1,23.7-25.8,36-38.2-9-8.5-18.8-16-29.5-22.6Z"/>
  </g>
  <g>
    <g>
      <path class="st1" d="M3571.5,1362.7c-7.9-69,.2-135.9,24.8-196v-73.7c-2.2,3.4-4.4,6.9-6.6,10.4-7.7,12.9-14.6,26.2-20.5,40-27.9,65.5-37.6,134.7-26.7,207.7.4,5.8,1.2,10.7,1.6,16.6,1.3,4,2.2,6.7,2.1,11.2,0,2.2,1.3,4,1.7,5.4,0,2.2,0,4.5.4,5.8.8,1.9,1.4,3.7,2,5.6h26.2c-2.1-10.8-3.8-21.8-5.1-33.1Z"/>
      <path class="st1" d="M3496.7,1236.7c2.4-17.9,3.9-34,8.6-51.8,5.1-21,11.1-39.2,18.9-58.8,8.3-20.5,19.2-39.6,31.5-59.2,12-18.5,26-34.6,40.6-50v-9c0-11.5-1.1-22.7-3.3-33.6-4.7,4.7-9.5,9.1-14.6,13.2-7.2,7.5-14,14.2-21.2,21.7-14.5,17.3-27.2,33.3-39,51.9-20.5,33.3-35.1,68.5-44,107.8-5.6,26.3-9,52.7-10.2,79.1-.2,20.1,0,39.4,3,60,3.3,24.2,6.7,43.9,13.2,66.3,2.1,7.3,4.2,14.4,6.5,21.5h24.8c-14.5-50.8-20.1-104.3-14.7-159Z"/>
      <path class="st1" d="M3544.3,957.7c10.9-10.6,20.9-21.9,30.2-33.6-6-10.7-13.1-20.7-21.2-29.8-7.5,10.6-15.7,20.8-24.8,30.6-25.3,27.5-51.1,51.4-73.3,81.6-11.9,16.7-21.9,34.1-30.3,52.1v122.1c13-85.6,54-165.8,119.3-222.9Z"/>
      <path class="st1" d="M3596.4,1188.8c-5.6,17.1-10.4,34.1-14.2,52.4-2.8,12-2.5,24.6-5.3,36.6-1.4,9.4-1.5,18.3-1.6,27.3-.2,20.1,0,39.4,3,60,1.4,10.9,2.9,20.7,4.8,30.8h13.4v-207Z"/>
      <path class="st1" d="M3425,836.5v130.7c8.4-10.8,17.4-21.2,27-31,25.2-21.3,46.9-45.9,64.8-73-26.5-16.9-58-26.6-91.8-26.6h0Z"/>
      <path class="st1" d="M3584.6,1039c-19.9,25.7-37.6,51.5-50.5,80.9-18.8,43.2-30,89.1-32.7,136.1-2.4,47.7,3.7,94.1,16.7,139.8h25.8c-8.2-34.7-12.4-70.6-12-107.3.8-74.3,23.4-146.8,64.3-207.4v-55c-2.7,3.4-5.4,6.8-8.1,10.2-.5.9-3.1,1.8-3.6,2.6Z"/>
      <path class="st1" d="M3425,1297.7c0-.1,0-.3,0-.4v95c.5,1.2,1,2.3,1.5,3.5h23.3c-11.8-31.1-19.8-62.8-24.7-98Z"/>
      <path class="st1" d="M3425,977.9v66.2c20.9-41.3,49.7-78.5,86-109.1,2.3-2.2,4.1-5.8,6.3-8,1.3-.4,3.1-1.8,3.6-2.6,10.1-11.4,19.4-23,27.9-35-8.1-8.4-17-16.1-26.7-22.7-10,15-21.3,29.3-34.1,43-21.1,22.8-43.8,42.8-63,68.2Z"/>
      <path class="st1" d="M3442.8,1355.1c3.9,13.9,8.4,27.4,13.5,40.6h23.9c-8.3-27-14.4-55.2-18.1-84.7,0-2.2-1.8-3.1-1.7-5.4-2.9-22.8-3.1-44.3-2-66.2,2.3-48.3,12.1-93.8,31.4-137.9,13.7-28.9,28.7-56.1,50-82.2,2.3-2.2,4.5-4.4,6.8-6.6,3.2-4,6.3-8,9.5-12,12.2-11.3,24.1-22.8,35.2-34.8-3.2-12.7-7.8-24.8-13.6-36.2-.7.8-1.4,1.6-2.1,2.3-6.3,8-11.8,16.4-19.5,22.6-10.8,10.2-20.8,20.8-32.1,31.9-91.3,97-117.8,236.3-81.5,362.8,0,2.2.4,3.6.4,5.8Z"/>
    </g>
    <g>
      <path class="st1" d="M3425,655.9v4c0,.4,0,.7,0,1.1,4.1-1.7,8.2-3.5,12.4-5.1h-12.4Z"/>
      <path class="st1" d="M3588.8,831.2c2.5.1,5,.2,7.5.2h0v-18.8c-.5,1.6-1,3.3-1.4,4.8-2,4.6-4,9.3-6.1,13.8Z"/>
      <path class="st1" d="M3563.1,783c-4.9,14.1-10.5,27.8-16.7,40.9,11.5,3.5,23.6,5.8,36,6.9,3.8-8.7,7.4-17.6,10.5-26.9,1.2-3.6,2.4-7.2,3.5-10.8v-137.1h-12.7c0,43.2-6.6,85-20.6,127.1Z"/>
      <path class="st1" d="M3540.3,821.9c24.7-50.8,37.6-107.7,37.2-166h-133.3c-6.4,2.5-12.8,5-19.2,7.6,1.5,73.5,49.2,135.6,115.3,158.4Z"/>
    </g>
  </g>
  <g>
    <path class="st0" d="M4009.4,1006.2c-1.4,4.5-3,9-4.7,13.4,12.1,2.6,22.9,7.1,32.2,13.4,6-16.6,10.8-33.8,14.4-51.4,7.5-36.5,9.6-72.8,6.9-108.8-9.7-1-19.7-1.6-30.1-1.7,1.5,45.1-4.8,90.3-18.6,135.1Z"/>
    <path class="st0" d="M3820.6,1278c8.3-20.5,19.2-39.6,31.5-59.2,7.8-12,16.5-23,25.6-33.5-9.7-6.4-19.8-11.9-30.4-16.6-11.9,14.5-22.6,28.5-32.7,44.4-20.5,33.3-35.1,68.5-44,107.8,0,.3-.1.6-.2.9,8.9,8.7,18.7,16.6,29.2,24,.6-2.9,1.3-5.9,2.1-8.9,5.1-21,11.1-39.2,18.9-58.8Z"/>
    <path class="st0" d="M3768.2,1151.8h-11.7c-1.7,2.1-3.3,4.3-4.9,6.5-16.1,22.7-28.7,46.4-38.6,71.5,5.4,16.3,12.5,31.7,21.2,46.3,13.6-44.3,35.1-85.8,63.9-121.9-9.8-1.5-19.8-2.3-29.9-2.3Z"/>
    <path class="st0" d="M3880.7,1073.5h4c5.8-16.7,16.7-30.3,32.6-40.8,10.2-6.7,22.1-11.3,35.7-13.7,20.1-45.6,30.6-94.2,31.8-145.1-10.9,1.6-21.5,3.8-31.8,6.6-5,61.1-23,119.2-56.8,171.1-5.1,7.1-10.1,14.7-15.6,21.9Z"/>
    <path class="st0" d="M3904,900.9c-12.3,7.4-22.7,15.9-31.3,25.7v-42.4c-3.3,16.9-7.7,33.8-13.4,50.7-15.7,45.3-37.9,85.2-69.9,121,10.7,5.6,22.2,9.9,34.2,12.9,28.9-34.1,50.8-70.2,65.4-113,6.3-18.5,11.3-36.6,14.9-54.9Z"/>
    <path class="st0" d="M3790.4,986.1c-6.8,11.1-14.5,21.8-22.7,33.3-3.6,4.8-7.3,9.3-11.1,13.7,8.4,7.5,17.6,14.2,27.5,19.8,51.8-58.8,82.6-134.3,88.6-214v-55.2c-.5-4.8-1.1-9.3-1.4-14.7-2.7-40.7-12.2-77-26.1-115.7-4.4-11.2-9.2-21.6-13.5-32.8-2-4.4-4-8.7-6.1-12.9h-23c3.3,7.6,6.4,15.2,9.4,23,1.3,1.8,2.6,3.6,3.1,5,3,11.7,7.8,22,10.8,33.7,1.7,7.6,3.9,14.4,5.6,22,5.2,20.6,7.6,39.9,10.1,61.4,1.2,17.5,2.4,32.7.4,49.6.4,1.3.4,3.6.8,4.9-2.3,48.3-12.1,93.8-31.4,137.9-6,13.8-14.1,27.6-21,40.9Z"/>
    <path class="st0" d="M3952.1,699.3c-12.9-32.9-28.9-63.3-47.5-91.5h-19.9c6.9,11.4,13.4,23.3,19.7,35.6,18,35.1,29.3,67.8,38.3,105,1.7,7.6,3.2,15.1,4.6,22.6h26.8c-5.4-24.1-12.7-47.8-21.9-71.7Z"/>
    <path class="st0" d="M3878.5,607.8h-20.2c10.4,19.5,19.6,39.8,27.5,60.9,1.3,1.8,1.8,3.1,3.1,5,11.6,31.9,19.9,64.5,24.5,97.4h28c-10.8-60.5-32.3-113.3-62.9-163.2Z"/>
    <path class="st0" d="M3986,931.3c-4.9,30.2-13.1,59.1-24.6,86.5,5.1-.6,10.3-.8,15.8-.8s14.2.5,20.8,1.5c7.2-20.4,12.8-39.9,17.2-60.9,2.8-14.3,3.9-27.2,5.8-42-.4-1.3-.4-3.6-.8-4.9.5-5.4,1-10.7,1.5-16.1,0-8,0-15.6-.1-23.4-10.4.1-20.5.8-30.3,1.9-.3,19.3-2.1,38.7-5.3,58.2Z"/>
    <path class="st0" d="M3873,732.9c0,2.2.4,3.6.4,5.8.4,1.3,1.8,3.1,1.7,5.4,1.3,9,2.3,18,3.1,26.9h28.9c-7-57.6-25.9-112.5-53.8-163.2h-21.2c15.7,32.2,28,66.5,36.6,102.7.4,3.6.8,7.2,2.1,11.2.4,1.3.4,3.6.4,5.8.4,1.3,1.3,4,1.7,5.4Z"/>
    <path class="st0" d="M4187.6,771h20.6c-35.8-57.4-82.5-106.1-138.5-149.7-1.5-1.1-2.9-2.2-4.4-3.3-3-.9-5.9-1.8-8.9-2.7,54,45.7,96.5,94.9,131.2,155.7Z"/>
    <path class="st0" d="M4168.1,1235.9c-6.3,8-11.8,16.4-19.5,22.6-10.8,10.2-20.8,20.8-32.1,31.9-28.7,30.5-51.1,65.3-67,102.4,15.7-2.6,30.5-6.3,44.5-11,10.7-20.3,22.8-39.7,38.2-58.6,2.3-2.2,4.5-4.4,6.8-6.6,3.2-4,6.3-8,9.5-12,32.1-29.6,61.4-60.7,83.3-98.9,9.3-16.4,17.2-33.2,23.9-50.4.7-10,1.1-20.2,1.1-30.7,0-27.6-3-53.7-8.9-78.5-6.4,56.1-24.2,109.4-55.4,157.4-7.7,10.7-15,22.7-24.5,32.4Z"/>
    <path class="st0" d="M3718.9,805.6c2.8-14.3,3.9-27.2,5.8-42-.4-1.3-.4-3.6-.8-4.9l1.5-16.1c.1-11.2-.2-21.5-.1-32.6-2-26.9-4-51.5-12.2-77,0-2.2-.4-3.6-.4-5.8-1.7-6.5-3.5-12.9-5.5-19.3h-3.1v251.8c6.1-18,10.9-35.3,14.8-54Z"/>
    <path class="st0" d="M3740.1,613.1c-.6-1.8-1.2-3.5-1.8-5.3h-24.7c1.1,3.2,2,6.5,2.8,10,0,2.2.4,3.6.4,5.8,21.6,76.2,19.9,154.1-3.7,230.7-2.6,8.3-5.8,16.4-9,24.4v36.9c0,11.5,1.2,22.6,3.5,33.4,22.5-36.1,38.6-76.4,47.3-119.3,15.1-73.2,8.2-145.3-14.8-216.6Z"/>
    <path class="st0" d="M4047.6,608.1c2.3.7,4.7,1.3,7,2-.6-.4-1.1-.8-1.7-1.2-1.1-.4-2.2-.7-3.3-1.1h-2.4c.1.1.3.2.4.3Z"/>
    <path class="st0" d="M4136.7,895.1c.4,3.2.8,6.3,1.1,9.6,1.2,17.5,2.4,32.7.4,49.6.4,1.3.4,3.6.8,4.9-2.3,48.3-12.1,93.8-31.4,137.9-6,13.8-14.1,27.6-21,40.9-4.5,7.3-9.3,14.4-14.4,21.7-3.9,17.6-10.8,32.8-20.6,45.5-11.6,14.9-27.3,24.6-47.1,28.9-26.4,27.7-47.1,59.5-62.9,94.8-9.3,20.8-16.6,42.1-22,63.7,11.1,1.8,22.6,3.1,34.3,4,16.8-58.5,47.6-112.4,90.5-156.6,85.3-72,130.6-182.5,125.1-296.6-.4-8.1-1.6-14.3-2-22.4-.2-2.3-.3-4.5-.5-6.8-4.1-3.1-8.2-6.1-12.6-8.9-5.7-3.8-11.7-7.2-17.8-10.3Z"/>
    <path class="st0" d="M4070.5,1079.7c3.8,12.2,5.7,26.1,5.7,41.6s-.5,15.9-1.4,23.3c7.9-12.1,14.9-24.7,21.2-37.8,31.7-67.2,42.9-141.2,33.8-215.1-9.3-4.3-19.2-7.9-29.5-10.9,7.6,69.8-2.7,138.3-29.8,198.9Z"/>
    <path class="st0" d="M3751.4,1028.3c19.7-22.2,35.5-46.6,48.3-73.4,38.8-82.3,46.9-174.8,24.6-265,0-2.2,0-4.5-.4-5.8-6.1-18.8-10.4-36.8-17.8-55.2-2.7-7.3-5.7-14.3-8.8-21.2h-22.3c13,34.2,22.4,70.6,27.5,109.2,14.3,104.3-11.2,206.3-72.9,284.7,6.3,9.6,13.6,18.6,21.8,26.6Z"/>
    <path class="st0" d="M3753.2,863.6c-3.7,11.6-7.4,23.2-12,34.3-6.9,15.6-13.7,31.2-22.4,45.8-2.9,4.7-6,9.4-9.1,14.1,3.7,13.4,9.1,26.1,16,37.8,22.5-30.2,39.3-61.5,52-96.8,16.6-47.7,23.8-94.6,21.6-145.1-2.3-51.4-13.2-100.2-31-145.9h-24.3c5.1,14.9,9.6,30.1,13.4,45.7.4,3.6.8,7.2,2.1,11.2.4,1.3.4,3.6.4,5.8.4,1.3,1.3,4,1.7,5.4,0,2.2.4,3.6.4,5.8.4,1.3,1.8,3.1,1.7,5.4,5.4,42.1,7.2,80.1,1.5,119.9-3.3,19.6-6.6,37.1-12.2,56.7Z"/>
    <path class="st0" d="M4061.7,958.9c-3.3,19.6-6.6,37.1-12.2,56.7-2.3,7.2-4.6,14.4-7.1,21.5,2.7,2.2,5.3,4.5,7.7,7,7,7.3,12.5,15.8,16.7,25.5,2.6-6.2,5.1-12.5,7.4-18.9,16.6-47.7,23.8-94.6,21.6-145.1-.4-8.9-1.1-17.7-2-26.5-9.6-2.4-19.6-4.3-30-5.6,2.2,29,2,56.8-2.1,85.4Z"/>
    <path class="st0" d="M3993.8,1235.9c-4.9.6-10.1.9-15.5.9-9.6,0-18.5-.9-26.8-2.8-23.2,29-41.8,60.4-55,95.4-6.3,18-11.7,35.7-16,54.5,10.6,3.1,21.6,5.6,33,7.7,6-24.4,14.4-48.1,24.8-71.2,14-31.5,32.9-58.5,55.5-84.5Z"/>
    <path class="st0" d="M4045.4,612.1c-4-1.1-8-2.2-12.1-3.3,53.1,46.1,95.9,100.1,127,162.1h21.1c-8.9-15.4-18.7-30.6-29.3-45.5-31-43-67-80.7-106.8-113.3Z"/>
    <path class="st0" d="M4025.5,607.8h-9.1c49.7,47.7,89.5,102,117.4,163.2h21.9c-31.7-61.2-76.7-116.5-130.2-163.2Z"/>
    <path class="st0" d="M3909.2,607.8c3.8,5.6,7.6,11.2,11.5,16.9,11,18,18.9,35.5,28.5,54,11.4,23.8,18.8,46.7,26.1,71.8,1.9,6.8,3.6,13.7,5.1,20.5h26.4c-16.7-60-44-114.2-79.9-163.2h-17.7Z"/>
    <path class="st0" d="M4213.4,963.3c2.1,47.7-4.2,95.7-20.3,142.7-2.3,4.4-4.1,10.2-5.5,15.2-16.5,38.7-36.5,75.7-66.4,107.6-25.3,27.5-51.1,51.4-73.3,81.6-19.5,27.4-33.8,56.3-44.4,87.2,13.6-.5,26.7-1.7,39.3-3.6,20.9-50.4,52.6-96,94.2-132.4,63.3-62,99.8-143.5,106.6-232-3.3-11-7.2-21.8-11.7-32.2-5.3-12.1-11.4-23.4-18.5-34Z"/>
    <path class="st0" d="M4175.9,685.9c-22.4-19.8-45.8-37.8-70-54-1.2-.5-2.4-.9-3.6-1.4,42.5,31.4,81,67.9,113.6,109.4-1.4-7.3-3.3-14.4-5.6-21.2-11-11.3-22.4-22.2-34.3-32.8Z"/>
    <path class="st0" d="M4191.3,680.3c-1.2-1.7-2.4-3.4-3.6-5.1-8.9-6.1-17.9-12-26.9-17.7,10.3,7.2,20.5,14.8,30.5,22.8Z"/>
    <path class="st0" d="M4096.1,617.7c14.3,6.6,28.3,13.7,42.1,21.2,6.4,3,12.6,6.1,18.9,9.4,4.2,1.9,8.3,3.9,12.4,5.9-23.7-23.1-54.3-39.1-88.5-44.4,5.1,2.6,10.1,5.2,15.1,7.9Z"/>
    <path class="st0" d="M4160.1,699.1c19.8,22.7,36,46.5,53.1,71.8h5.6c0-6.4-.4-12.6-1.1-18.8-10.1-13.4-20.9-26.3-32.3-38.9-30.6-33.5-64.3-63.1-100.5-88.9-1.8-.6-3.7-1.2-5.5-1.9,28.8,22.9,55.8,48.4,80.7,76.6Z"/>
    <path class="st0" d="M4192.7,1271c-7.2,7.5-14,14.2-21.7,20.4-7.2,7.5-14,14.2-21.2,21.7-14.5,17.3-27.2,33.3-39,51.9-2.8,4.5-5.4,9.1-8,13.6,29.7-11.2,55.5-27.4,77.4-48.5,5-5.5,10.1-10.9,15.3-16.2,30.7-35.9,49.9-80.5,57.5-133.6-15,32.7-35,63.1-60.3,90.8Z"/>
    <path class="st0" d="M4205.6,706.7c-2.1-5-4.5-9.9-7.2-14.6-22.9-19-47.3-36.4-72.6-52,28.4,20,55.2,42.3,79.8,66.6Z"/>
    <path class="st0" d="M4174.3,920c5.4,57.7-.4,112-18.6,166.8-16.6,47.7-40.3,89.5-75.1,126.7-22.6,24.4-47,45.6-66.9,73.6-20.9,29.8-35.5,60.5-48.4,94.3-1.9,5.2-3.5,10.4-5,15.6,8.7.5,17.6.8,26.6.8s6.6,0,9.9-.1c20.5-61.2,56.4-116.4,106.8-158.8,2.3-2.2,4.1-5.8,6.3-8,1.3-.4,3.1-1.8,3.6-2.6,32.1-36.3,56.2-74.6,71.9-120.5,11.1-32.5,18.1-63.8,20.7-97.3.5-3.1,0-6.7-.3-10.3,1-15.8,1.1-31.4.4-46.9-9.3-12.2-19.9-23.3-31.8-33.2Z"/>
    <path class="st0" d="M3883.4,1189.3c-1,.6-2.2,1.1-2.5,1.7-19.9,25.7-37.6,51.5-50.5,80.9-10.9,25.2-19.3,51.3-24.9,77.9,9.4,6.2,19.5,11.8,30.1,17,.2,0,.4.2.5.3,11.9-57.1,36.7-110.9,72.8-156.4-8.1-7.8-16.6-14.9-25.7-21.3Z"/>
    <path class="st0" d="M3950.3,607.8h-16c25.5,35.8,46.8,75.1,62.7,117.9,1.3,1.8,2.6,3.6,3.1,5,3,13.9,9.6,25.1,12.6,39,0,.5,0,.9,0,1.3h25.6c-.6-2-1.2-4-1.9-6-19.4-58.8-48.8-110.7-86.2-157.2Z"/>
    <path class="st0" d="M3785.9,1253.5c13.7-28.9,28.7-56.1,50-82.2,1.7-1.7,3.5-3.4,5.2-5.1-11.6-4.7-23.6-8.3-36-10.7-31.3,37.9-53.6,81.2-67,127.2,7.8,12.1,16.7,23.4,26.7,33.8,5.1-21.4,12-42.3,21-62.9Z"/>
    <path class="st0" d="M3872.8,1073.5c42.6-54.9,67.8-120.8,74-191.2-3.5,1.1-7,2.2-10.4,3.5-8.9,3.2-17.2,6.9-24.9,10.9-3.4,19.2-8.3,38.4-14.8,57.4-2.3,4.4-4.1,10.2-5.5,15.2-15.4,36.2-33.9,70.7-60.6,101.1,10.1,2,20.6,3.1,31.4,3.1h10.8Z"/>
    <path class="st0" d="M3747.8,1151.8h-41.4c-2.1,3.4-4.2,6.9-6.2,10.4,1.3,20.5,4.6,39.9,9.8,58.2,10.1-24.2,22.7-47.2,37.8-68.6Z"/>
    <path class="st0" d="M4052,684.2c-18.6-28.1-38.8-53.1-61.2-76.4h-12c42.3,48.3,75.3,102.5,96.7,163.2h23.1c-4.7-11.4-9.9-22.2-15.4-33.7-9.2-19.3-20.2-35.1-31.2-53.1Z"/>
    <path class="st0" d="M4008.4,607.8h-9.5c43.7,46.9,79.4,101.3,104.6,163.2h23.6c-29.2-63.4-69.3-115.7-118.8-163.2Z"/>
    <path class="st0" d="M3956.7,607.8c38.1,48.3,68.3,102.9,87.5,163.2h24.8c-21.7-60.2-55.4-115.1-97.4-163.2h-14.9Z"/>
    <path class="st0" d="M3914,1215.3c-2.9,3.5-5.7,7.1-8.4,10.8-7.3,9.8-13.2,19.1-19.5,29.3-7.7,12.9-14.6,26.2-20.5,40-10.4,24.2-18.2,49-23.4,74.3,10,4.5,20.4,8.5,31.2,11.9,11.5-54.7,35-105.5,70.6-149.7-11.5-3.6-21.4-9.1-29.9-16.7Z"/>
  </g>
  <g>
    <path class="st0" d="M1850.2,1118.2c-1.6-2.8-3.1-5.7-4.6-8.6l-86.7,78.5-141.4-94c-23.7-15.8-55.6-11.2-73.8,10.7l-98.5,117.9c2.2,2.9,4.4,5.6,6.9,8.2,20.9,21.8,46.5,32.7,77.1,32.7s1.6,0,2.3-.1c30.1-35,59.7-69.2,59.7-69.2l156.3,94.4c15.3,9.2,34.9,7.3,48.1-4.8l110-100.5c-22-17.9-40.5-39.6-55.2-65.2Z"/>
    <path class="st0" d="M2289.9,731.4l-203.9,23.7c-15.8,1.8-22.7,20.8-11.8,32.4l58.5,62.1-156.9,142.1c2,34.7,12,61.6,30.3,80.7,3.3,3.5,6.8,6.6,10.4,9.5l182.1-166.4,59.1,53.6c12.2,11,31.7,3.8,33.8-12.5l25-198.3c2-15.5-11.2-28.8-26.7-27Z"/>
  </g>
</svg>