<svg xmlns="http://www.w3.org/2000/svg" width="400" height="70.642" viewBox="0 0 400 70.642">
  <g id="alazka-logo" transform="translate(-591.287 -102)">
    <g id="Group_13" data-name="Group 13" transform="translate(591.287 102)">
      <g id="Group_7" data-name="Group 7" transform="translate(329.862 0.227)">
        <path id="Path_10" data-name="Path 10" d="M73.213-88.2,101.2-19.259H87.043L66.078-70.768,45.224-19.259H31.064L59.054-88.2Z" transform="translate(-31.064 88.2)" fill="#fff"/>
      </g>
      <g id="Group_2134" data-name="Group 2134" transform="translate(278.274 0.227)">
        <path id="Path_10-2" data-name="Path 10" d="M49-88.2,22.435-53.729,49-19.259H32.862L14.422-43.191,6.3-53.729,32.862-88.2Z" transform="translate(-6.3 88.2)" fill="#576fdb"/>
      </g>
      <g id="Group_6" data-name="Group 6">
        <path id="Path_8" data-name="Path 8" d="M48.449-88.2,76.438-19.259H62.279L41.314-70.768,20.459-19.259H6.3L34.289-88.2ZM100.7-31.176h40.831v11.917H87.414V-88.2H100.7ZM191.469-88.2l27.989,68.941H205.3L184.334-70.768,163.479-19.259H149.32L177.309-88.2Zm90.883,0v11.917L244.813-31.176h37.539v11.917H228.239V-31.176l37.539-45.107H228.239V-88.2Z" transform="translate(-6.3 88.2)" fill="#fff"/>
      </g>
      <circle id="Ellipse_5" data-name="Ellipse 5" cx="7.111" cy="7.111" r="7.111" transform="translate(357.821 54.337)" fill="#fff"/>
      <circle id="Ellipse_112" data-name="Ellipse 112" cx="7.111" cy="7.111" r="7.111" transform="translate(28.678 56.42)" fill="#fff"/>
    </g>
  </g>
</svg>
