<!DOCTYPE svg PUBLIC "-//W3C//DTD SVG 1.1//EN" "http://www.w3.org/Graphics/SVG/1.1/DTD/svg11.dtd">
<!-- Uploaded to: SVG Repo, www.svgrepo.com, Transformed by: SVG Repo Mixer Tools -->
<svg fill="#576fdb" height="800px" width="800px" version="1.1" id="Layer_1" xmlns="http://www.w3.org/2000/svg" xmlns:xlink="http://www.w3.org/1999/xlink" viewBox="0 0 512.001 512.001" xml:space="preserve">
<g id="SVGRepo_bgCarrier" stroke-width="0"/>
<g id="SVGRepo_tracerCarrier" stroke-linecap="round" stroke-linejoin="round"/>
<g id="SVGRepo_iconCarrier"> <g> <g> <path d="M395.459,186.212c-17.56-17.56-40.909-27.231-65.743-27.231c-24.834,0-48.183,9.672-65.743,27.231 c-36.25,36.251-36.25,95.235,0,131.486c18.125,18.125,41.934,27.187,65.743,27.187c23.809,0,47.617-9.062,65.743-27.187 C431.71,281.448,431.71,222.464,395.459,186.212z M379.003,301.242c-13.59,13.59-31.436,20.385-49.286,20.382 c-17.847-0.001-35.7-6.796-49.286-20.382c-27.177-27.176-27.177-71.396,0-98.573c13.164-13.164,30.668-20.416,49.286-20.416 s36.122,7.251,49.286,20.416C406.18,229.845,406.18,274.065,379.003,301.242z"/> </g> </g> <g> <g> <path d="M340.214,409.961H77.295c-6.427,0-11.636,5.211-11.636,11.636s5.21,11.636,11.636,11.636h262.919 c6.427,0,11.636-5.211,11.636-11.636S346.641,409.961,340.214,409.961z"/> </g> </g> <g> <g> <path d="M385.713,419.327c-0.151-0.744-0.372-1.477-0.663-2.188c-0.291-0.698-0.652-1.373-1.071-2.001 c-0.419-0.64-0.908-1.233-1.443-1.769c-2.7-2.7-6.726-3.946-10.508-3.188c-0.733,0.151-1.466,0.371-2.176,0.662 c-0.698,0.291-1.373,0.653-2.001,1.072c-0.64,0.429-1.233,0.918-1.769,1.455c-0.535,0.535-1.024,1.129-1.455,1.769 c-0.419,0.628-0.768,1.303-1.059,2.001c-0.291,0.71-0.524,1.443-0.675,2.188c-0.151,0.746-0.221,1.514-0.221,2.269 c0,0.756,0.07,1.526,0.221,2.269c0.151,0.744,0.384,1.478,0.675,2.176c0.291,0.71,0.64,1.384,1.059,2.012 c0.431,0.641,0.919,1.235,1.455,1.77s1.129,1.024,1.769,1.443c0.628,0.418,1.303,0.78,2.001,1.071 c0.71,0.291,1.443,0.511,2.176,0.662c0.756,0.152,1.524,0.233,2.281,0.233s1.524-0.08,2.269-0.233 c0.745-0.151,1.478-0.371,2.176-0.662c0.71-0.291,1.385-0.653,2.013-1.071c0.64-0.419,1.233-0.908,1.769-1.443 s1.024-1.129,1.443-1.77c0.419-0.628,0.78-1.302,1.071-2.012c0.291-0.699,0.512-1.431,0.663-2.176 c0.151-0.745,0.233-1.513,0.233-2.269C385.945,420.841,385.864,420.072,385.713,419.327z"/> </g> </g> <g> <g> <path d="M489.829,395.612l-43.759-43.759v-28.574c13.078-21.247,20.077-45.745,20.077-71.322s-7-50.076-20.077-71.322v-169 C446.07,5.211,440.861,0,434.434,0H167.711c-0.132,0-0.261,0.015-0.391,0.02c-0.134,0.005-0.266,0.01-0.4,0.02 c-0.488,0.033-0.968,0.088-1.437,0.179c-0.017,0.004-0.035,0.005-0.052,0.008c-0.512,0.101-1.008,0.244-1.494,0.412 c-0.094,0.033-0.187,0.068-0.28,0.102c-0.452,0.169-0.891,0.357-1.314,0.578c-0.036,0.019-0.074,0.034-0.111,0.054 c-0.449,0.24-0.875,0.514-1.287,0.81c-0.098,0.07-0.193,0.143-0.289,0.216c-0.406,0.311-0.799,0.639-1.161,0.998 c-0.003,0.005-0.009,0.007-0.013,0.012L22.173,140.719c-0.003,0.003-0.007,0.008-0.01,0.013c-0.362,0.363-0.69,0.756-1.001,1.164 c-0.072,0.094-0.144,0.188-0.213,0.285c-0.296,0.412-0.571,0.84-0.812,1.289c-0.019,0.034-0.031,0.07-0.05,0.104 c-0.221,0.425-0.412,0.867-0.581,1.32c-0.035,0.094-0.071,0.187-0.104,0.282c-0.166,0.484-0.31,0.98-0.411,1.491 c-0.005,0.022-0.006,0.044-0.01,0.065c-0.09,0.463-0.144,0.939-0.177,1.421c-0.009,0.137-0.016,0.273-0.021,0.412 c-0.005,0.128-0.02,0.255-0.02,0.384v351.418c0,6.426,5.21,11.636,11.636,11.636h404.034c6.427,0,11.636-5.211,11.636-11.636 V384.767l27.304,27.302c2.271,2.271,5.25,3.408,8.228,3.408c2.978,0,5.957-1.137,8.228-3.408 C494.374,407.524,494.374,400.156,489.829,395.612z M156.075,39.73v97.579H58.496L156.075,39.73z M422.803,488.727h-0.006H42.038 V160.582h125.673c6.427,0,11.636-5.211,11.636-11.636V23.273h243.45v128.933c-0.237-0.221-0.479-0.434-0.718-0.654 c-0.467-0.431-0.934-0.858-1.407-1.281c-0.321-0.287-0.644-0.571-0.967-0.855c-0.575-0.506-1.153-1.008-1.735-1.503 c-0.207-0.176-0.415-0.35-0.623-0.525c-0.725-0.609-1.455-1.211-2.189-1.804c-0.051-0.042-0.102-0.083-0.155-0.123 c-24.122-19.394-53.893-29.936-85.288-29.936c-35.024,0-68.031,13.115-93.423,37.013c-0.2,0.189-0.404,0.371-0.603,0.561 c-0.156,0.148-0.308,0.302-0.463,0.453c-0.664,0.638-1.328,1.279-1.983,1.934c-11.27,11.27-20.143,24.041-26.637,37.672 c-17.741,37.232-17.666,80.895,0.225,118.072c6.474,13.454,15.272,26.061,26.412,37.201c0.826,0.826,1.661,1.638,2.502,2.439 c0.179,0.17,0.362,0.334,0.541,0.503c0.661,0.621,1.323,1.242,1.994,1.847c0.297,0.269,0.599,0.528,0.898,0.794 c0.56,0.497,1.117,0.995,1.683,1.481c0.347,0.298,0.699,0.586,1.05,0.881c0.525,0.441,1.047,0.887,1.577,1.318 c0.379,0.31,0.763,0.609,1.145,0.913c0.506,0.404,1.01,0.811,1.52,1.207c0.405,0.314,0.816,0.619,1.223,0.927 c0.493,0.375,0.986,0.752,1.484,1.118c0.425,0.313,0.853,0.616,1.28,0.922c0.488,0.35,0.973,0.704,1.464,1.046 c0.439,0.307,0.882,0.604,1.324,0.905c0.486,0.332,0.97,0.666,1.46,0.99c0.45,0.298,0.905,0.588,1.359,0.881 c0.485,0.313,0.97,0.63,1.458,0.936c0.465,0.291,0.934,0.575,1.401,0.86c0.482,0.294,0.964,0.591,1.449,0.879 c0.479,0.285,0.964,0.561,1.446,0.839c0.478,0.276,0.955,0.554,1.436,0.824c0.491,0.276,0.986,0.543,1.48,0.812 c0.479,0.261,0.958,0.524,1.438,0.777c0.499,0.264,1.001,0.519,1.502,0.776c0.481,0.247,0.961,0.495,1.444,0.734 c0.51,0.254,1.022,0.5,1.534,0.747c0.479,0.232,0.958,0.463,1.439,0.689c0.518,0.242,1.038,0.477,1.558,0.712 c0.482,0.218,0.962,0.436,1.445,0.648c0.525,0.23,1.052,0.454,1.58,0.677c0.481,0.204,0.961,0.407,1.444,0.605 c0.535,0.219,1.073,0.433,1.61,0.645c0.478,0.189,0.958,0.378,1.438,0.561c0.545,0.208,1.091,0.41,1.637,0.611 c0.477,0.176,0.955,0.35,1.435,0.52c0.55,0.195,1.102,0.385,1.654,0.573c0.481,0.163,0.961,0.326,1.443,0.484 c0.556,0.183,1.114,0.36,1.671,0.534c0.479,0.15,0.959,0.299,1.439,0.443c0.563,0.17,1.129,0.335,1.694,0.498 c0.478,0.137,0.957,0.273,1.436,0.405c0.57,0.157,1.142,0.31,1.714,0.46c0.477,0.125,0.954,0.247,1.431,0.367 c0.578,0.145,1.157,0.285,1.736,0.421c0.474,0.112,0.948,0.221,1.423,0.328c0.585,0.132,1.171,0.259,1.756,0.383 c0.474,0.1,0.947,0.198,1.422,0.292c0.588,0.118,1.175,0.232,1.764,0.341c0.474,0.088,0.948,0.173,1.423,0.257 c0.592,0.104,1.186,0.205,1.779,0.301c0.472,0.077,0.945,0.15,1.418,0.221c0.598,0.091,1.195,0.178,1.794,0.261 c0.469,0.065,0.938,0.126,1.408,0.186c0.605,0.077,1.209,0.151,1.815,0.22c0.465,0.052,0.931,0.101,1.398,0.15 c0.61,0.063,1.219,0.124,1.83,0.179c0.462,0.042,0.925,0.079,1.388,0.116c0.614,0.049,1.229,0.097,1.844,0.137 c0.46,0.03,0.92,0.056,1.38,0.081c0.619,0.035,1.237,0.069,1.856,0.095c0.457,0.02,0.916,0.034,1.373,0.049 c0.62,0.021,1.24,0.04,1.862,0.051c0.456,0.008,0.912,0.012,1.368,0.016c0.425,0.003,0.851,0.015,1.275,0.015 c0.199,0,0.398-0.006,0.597-0.007c0.453-0.002,0.904-0.01,1.357-0.016c0.626-0.008,1.253-0.019,1.879-0.036 c0.449-0.013,0.898-0.03,1.347-0.048c0.631-0.024,1.261-0.048,1.892-0.08c0.442-0.023,0.884-0.051,1.327-0.079 c0.636-0.04,1.272-0.078,1.907-0.126c0.436-0.033,0.873-0.072,1.31-0.109c0.639-0.053,1.278-0.107,1.915-0.171 c0.434-0.043,0.867-0.093,1.301-0.14c0.641-0.07,1.282-0.138,1.922-0.216c0.427-0.052,0.854-0.113,1.281-0.169 c0.643-0.085,1.288-0.17,1.93-0.264c0.421-0.062,0.841-0.131,1.261-0.197c0.649-0.101,1.297-0.201,1.946-0.312 c0.41-0.07,0.817-0.148,1.225-0.221c0.656-0.119,1.311-0.235,1.967-0.363c0.4-0.078,0.798-0.164,1.197-0.246 c0.662-0.136,1.324-0.269,1.984-0.414c0.386-0.085,0.771-0.178,1.158-0.266c0.67-0.154,1.341-0.306,2.008-0.469 c0.369-0.091,0.735-0.19,1.103-0.283c0.684-0.173,1.37-0.346,2.052-0.531c0.334-0.091,0.666-0.19,0.998-0.283 c0.713-0.199,1.427-0.396,2.136-0.606c0.28-0.083,0.559-0.173,0.839-0.258c0.761-0.232,1.521-0.462,2.278-0.706 c0.136-0.044,0.272-0.093,0.408-0.137c2.837-0.925,5.648-1.946,8.431-3.062c0.107-0.043,0.215-0.083,0.324-0.127 c0.661-0.266,1.316-0.547,1.974-0.824c0.356-0.15,0.713-0.294,1.067-0.448c0.592-0.256,1.18-0.525,1.77-0.79 c0.413-0.186,0.829-0.365,1.24-0.556c0.557-0.257,1.111-0.527,1.665-0.792c0.441-0.211,0.883-0.417,1.322-0.632 c0.527-0.259,1.051-0.531,1.576-0.797c0.462-0.235,0.925-0.464,1.385-0.704c0.507-0.265,1.011-0.541,1.516-0.815 c0.471-0.254,0.944-0.504,1.411-0.763c0.491-0.272,0.977-0.555,1.466-0.833c0.478-0.273,0.959-0.542,1.434-0.823 c0.476-0.279,0.947-0.568,1.42-0.853c0.482-0.291,0.966-0.58,1.445-0.876c0.464-0.289,0.925-0.585,1.386-0.881 c0.483-0.307,0.966-0.613,1.445-0.927c0.453-0.297,0.901-0.603,1.351-0.905c0.483-0.325,0.966-0.648,1.445-0.98 c0.442-0.306,0.881-0.621,1.321-0.933c0.479-0.34,0.96-0.678,1.436-1.026c0.433-0.315,0.862-0.639,1.292-0.961 c0.478-0.357,0.955-0.713,1.43-1.078c0.422-0.323,0.84-0.655,1.259-0.986c0.475-0.374,0.95-0.747,1.42-1.128 c0.413-0.335,0.823-0.676,1.233-1.017c0.3-0.249,0.604-0.492,0.903-0.744l5.186,5.186V488.727z M424.708,313.498 c-0.01,0.016-0.023,0.031-0.034,0.048c-0.534,0.822-1.079,1.636-1.635,2.445c-0.005,0.006-0.009,0.013-0.014,0.02 c-0.527,0.766-1.066,1.526-1.613,2.278c-0.051,0.07-0.101,0.141-0.151,0.209c-0.507,0.695-1.024,1.384-1.548,2.068 c-0.085,0.111-0.169,0.222-0.254,0.334c-0.493,0.639-0.996,1.273-1.502,1.903c-0.116,0.144-0.23,0.29-0.348,0.434 c-0.479,0.589-0.968,1.172-1.459,1.751c-0.149,0.175-0.294,0.353-0.443,0.527c-0.464,0.542-0.938,1.076-1.413,1.609 c-0.18,0.202-0.357,0.408-0.54,0.61c-0.455,0.504-0.919,1-1.384,1.496c-0.206,0.22-0.407,0.443-0.614,0.661 c-0.545,0.573-1.097,1.136-1.654,1.697c-0.126,0.126-0.247,0.256-0.372,0.382c-17.922,17.926-40.413,28.568-63.759,31.929 c-16.163,2.327-32.737,1.164-48.49-3.491c-17.503-5.17-33.993-14.649-47.781-28.437c-44.12-44.12-44.12-115.909,0-160.029 c0.022-0.022,0.044-0.043,0.065-0.064c1.35-1.347,2.725-2.655,4.125-3.92c0.028-0.026,0.057-0.05,0.085-0.076 c42.909-38.699,108.545-38.704,151.46-0.016c0.036,0.033,0.074,0.065,0.111,0.098c1.389,1.256,2.754,2.554,4.095,3.891 c0.029,0.029,0.059,0.057,0.088,0.087c0.29,0.29,0.57,0.585,0.856,0.877c0.389,0.397,0.781,0.791,1.164,1.194 c0.195,0.206,0.385,0.417,0.579,0.624c0.485,0.518,0.969,1.036,1.444,1.562c0.12,0.133,0.235,0.268,0.354,0.4 c0.548,0.613,1.093,1.229,1.627,1.854c0.062,0.072,0.121,0.144,0.182,0.216c0.592,0.696,1.178,1.396,1.752,2.105 c0.012,0.014,0.022,0.028,0.034,0.043c2.488,3.07,4.81,6.262,6.952,9.555c0.029,0.044,0.062,0.084,0.091,0.127 c11.783,18.143,18.109,39.312,18.109,61.456C442.873,274.134,436.527,295.334,424.708,313.498z"/> </g> </g> </g>
</svg>